<svg xmlns="http://www.w3.org/2000/svg" width="24" height="24" fill="none"><path fill="#000" d="M7.22 18.35H.9V5.65h6.32L14.6.815v22.37zm.657-2.2 4.523 2.964V4.887L7.877 7.85H3.1v8.3zm10.7 2.568.07-.071A9.34 9.34 0 0 0 21.4 12a9.34 9.34 0 0 0-2.753-6.646l-.07-.071 1.555-1.556.07.07A11.52 11.52 0 0 1 23.6 12c0 3.099-1.206 6.011-3.397 8.203l-.071.07zm-2.83-2.829.071-.07c1.02-1.02 1.582-2.377 1.582-3.82s-.562-2.798-1.582-3.818l-.07-.07 1.555-1.556.071.07A7.55 7.55 0 0 1 19.6 12a7.55 7.55 0 0 1-2.226 5.374l-.07.07z"/></svg>