<svg xmlns="http://www.w3.org/2000/svg" width="24" height="24" fill="none"><path fill="#0C0C0C" fill-rule="evenodd" d="M.9 3.65a.25.25 0 0 1 .25-.25h21.7a.25.25 0 0 1 .25.25v16.7a.25.25 0 0 1-.25.25H1.15a.25.25 0 0 1-.25-.25zM6.375 7.5h-1.75v1.75h1.75zm-1.75 3.75h1.75V13h-1.75zM6.375 15h-1.75v1.75h1.75zm1.5-7.5h1.75v1.75h-1.75zm1.75 3.75h-1.75V13h1.75zM7.875 15h8.25v1.75h-8.25zm5-7.5h-1.75v1.75h1.75zm-1.75 3.75h1.75V13h-1.75zm5-3.75h-1.75v1.75h1.75zm-1.75 3.75h1.75V13h-1.75zm5-3.75h-1.75v1.75h1.75zm-1.75 3.75h1.75V13h-1.75zm1.75 3.75h-1.75v1.75h1.75z" clip-rule="evenodd"/></svg>