<svg xmlns="http://www.w3.org/2000/svg" width="24" height="24" fill="none"><g fill="#0c0c0c"><path d="m15.5 14-5.7-3 .2 6z"/><path fill-rule="evenodd" d="M22.268 6.65H16.35V5.265a4.23 4.23 0 0 0-4.225-4.115h-.25A4.23 4.23 0 0 0 7.65 5.375V6.65H1.733a.5.5 0 0 0-.497.556l1.595 14.2a.5.5 0 0 0 .496.444h17.346a.5.5 0 0 0 .497-.444l1.595-14.2a.5.5 0 0 0-.497-.556m-1.342 1.7L19.6 20.15H4.4L3.074 8.35zM9.35 5.375a2.6 2.6 0 0 1 .036-.425 2.53 2.53 0 0 1 2.49-2.1h.25a2.53 2.53 0 0 1 2.524 2.525V6.65h-5.3z" clip-rule="evenodd"/></g></svg>