<?xml version="1.0" encoding="utf-8"?>
<!-- Generator: Adobe Illustrator 27.5.0, SVG Export Plug-In . SVG Version: 6.00 Build 0)  -->
<svg version="1.1" id="Layer_1" xmlns="http://www.w3.org/2000/svg" xmlns:xlink="http://www.w3.org/1999/xlink" x="0px" y="0px"
	 viewBox="0 0 24 24" style="enable-background:new 0 0 24 24;" xml:space="preserve">
<path d="M7.9,16c0-0.6,0.5-1.1,1.1-1.1h6c0.6,0,1.1,0.5,1.1,1.1s-0.5,1.1-1.1,1.1H9C8.4,17.1,7.9,16.6,7.9,16z M22.6,6v12
	c0,1.2-0.9,2.1-2.1,2.1h-17c-1.2,0-2.1-0.9-2.1-2.1V6c0-1.2,0.9-2.1,2.1-2.1h17C21.7,3.9,22.6,4.8,22.6,6z M20.4,6.1H3.6v11.8h16.8
	V6.1z"/>
</svg>
