<svg width="24" height="24" fill="none" xmlns="http://www.w3.org/2000/svg"><path d="M22 4.75a2 2 0 1 0-4 0 2 2 0 0 0 4 0ZM15.25 3.5h-13a.25.25 0 0 0-.25.25v2c0 .138.112.25.25.25h13a.25.25 0 0 0 .25-.25v-2a.25.25 0 0 0-.25-.25ZM22 12a2 2 0 1 0-4 0 2 2 0 0 0 4 0Zm-6.75-1.25h-13A.25.25 0 0 0 2 11v2c0 .138.112.25.25.25h13a.25.25 0 0 0 .25-.25v-2a.25.25 0 0 0-.25-.25Zm6.75 8.5a2 2 0 1 0-4 0 2 2 0 0 0 4 0ZM15.25 18h-13a.25.25 0 0 0-.25.25v2c0 .138.112.25.25.25h13a.25.25 0 0 0 .25-.25v-2a.25.25 0 0 0-.25-.25Z" fill="#1A1A1A"/></svg>