<svg xmlns="http://www.w3.org/2000/svg" width="24" height="24" fill="none"><path fill="#1A1A1A" d="m19.45 9.8-.9-.9c-.1-.1-.25-.1-.35 0l-5.35 5.35v-12c0-.15-.1-.25-.25-.25h-1.25c-.15 0-.25.1-.25.25v12l-5.3-5.3c-.1-.1-.25-.1-.35 0l-.9.9c-.1.1-.1.25 0 .35l7.25 7.25c.1.1.25.1.35 0l7.25-7.25c.1-.1.1-.3.05-.4"/><path fill="#1A1A1A" d="M21.75 17H20.5c-.15 0-.25.1-.25.25v3H3.75v-3c0-.15-.1-.25-.25-.25H2.25c-.15 0-.25.1-.25.25v4.5c0 .15.1.25.25.25h19.5c.15 0 .25-.1.25-.25v-4.5c0-.15-.1-.25-.25-.25"/></svg>