<svg xmlns="http://www.w3.org/2000/svg" width="24" height="24" fill="none"><path fill="#000" d="M16.538 2.414 13.202 5.75l3.336 3.336-1.203 1.203L12 6.952 8.664 10.29 7.461 9.086l3.336-3.336-3.335-3.336 1.203-1.202L12 4.548l3.335-3.336zM6.445 14.858c.565.684.863 1.675.863 2.867v.01c0 1.192-.298 2.184-.863 2.87-.562.682-1.377 1.043-2.356 1.043-.98 0-1.795-.361-2.359-1.044-.566-.686-.866-1.678-.866-2.869v-.01c0-1.19.299-2.182.866-2.867.564-.68 1.379-1.04 2.359-1.04.979 0 1.794.36 2.356 1.04m-.93 2.867c0-1.654-.506-2.566-1.426-2.566s-1.432.935-1.432 2.566v.01c0 1.634.522 2.571 1.432 2.571s1.427-.937 1.427-2.57zm5.005-2.453h3.824v.162l-3.18 6.074H13l3.083-6.154v-1.396h-5.564zm10.282 1.301c-.741 0-1.361.303-1.66.81l-.029.05h-.203l.172-2.16h3.656v-1.316h-5.022l-.32 4.42h1.543c.09-.152.217-.288.37-.395.244-.177.552-.271.892-.271.802 0 1.362.533 1.362 1.298v.01c0 .774-.56 1.314-1.362 1.314-.643 0-1.171-.362-1.328-.902h-1.607c.096 1.327 1.273 2.217 2.934 2.217 1.807 0 3.021-1.072 3.021-2.667v-.01c0-1.39-1.017-2.398-2.419-2.398m-12.09 3.223c-.507 0-.904.397-.904.904s.397.91.904.91.909-.4.909-.91-.4-.904-.91-.904"/></svg>