<svg width="24" height="24" viewBox="0 0 24 24" fill="none" xmlns="http://www.w3.org/2000/svg"><path d="m16.538 2.41441-3.3365 3.336 3.3365 3.3355-1.203 1.20299-3.3355-3.33649-3.33547 3.33649-1.203-1.20299 3.33647-3.3355-3.33547-3.336 1.20249-1.2025 3.33598 3.3365 3.3355-3.336 1.2025 1.2025-.0005-.0005ZM6.44453 14.8584c.565.684.8635 1.675.8635 2.8665v.0105c0 1.1915-.2985 2.1835-.8635 2.869-.562.6825-1.377 1.0435-2.356 1.0435-.979 0-1.795-.361-2.3585-1.0435-.5665-.6865-.866505-1.6785-.866505-2.869v-.0105c0-1.1905.299505-2.1815.866505-2.8665.5635-.681 1.379-1.041 2.3585-1.041.9795 0 1.794.36 2.356 1.041Zm-.929 2.8665c0-1.654-.5065-2.5655-1.4265-2.5655-.92 0-1.432.935-1.432 2.5655v.0105c0 1.6335.522 2.571 1.432 2.571.91 0 1.4265-.937 1.4265-2.571v-.0105Zm5.00397-2.4525h3.824v.162l-3.179 6.074H13l3.0825-6.1545v-1.396H10.519v1.315l.0005-.0005Zm10.2825 1.301c-.7415 0-1.3615.303-1.6595.8105l-.029.049h-.203l.1715-2.1605h3.6555v-1.315h-5.022l-.319 4.419h1.5425c.0895-.151.2165-.287.37-.394.2435-.1775.5515-.2715.8915-.2715.802 0 1.362.5335 1.362 1.298v.0105c0 .774-.56 1.314-1.362 1.314-.642 0-1.1705-.362-1.3275-.9025h-1.6065c.0955 1.327 1.2725 2.217 2.934 2.217 1.8065 0 3.021-1.0715 3.021-2.6665v-.011c0-1.389-1.0175-2.3975-2.419-2.3975l-.0005.0005Zm-12.09047 3.223c-.507 0-.90401.397-.90401.904s.39701.91.90401.91.9095-.3995.9095-.91-.3995-.904-.9095-.904Z" fill="#000"/></svg>