<svg xmlns="http://www.w3.org/2000/svg" width="24" height="24" fill="none"><path fill="#1A1A1A" d="M16.5 4.5h5.25c.15 0 .25-.1.25-.25v-2c0-.15-.1-.25-.25-.25h-7.5c-.15 0-.25.1-.25.25V6H9.15c-.1 0-.2.05-.25.15l-2 5.35-4.75 1.45c-.1.05-.15.15-.15.25v7.55c0 .15.1.25.25.25h3.7c.65 1.2 1.9 2 3.3 2s2.7-.8 3.3-2h9.2c.15 0 .25-.1.25-.25v-2c0-.15-.1-.25-.25-.25H16.5zm-7.25 16c-.7 0-1.25-.55-1.25-1.25S8.55 18 9.25 18s1.25.55 1.25 1.25-.55 1.25-1.25 1.25m4.75-2h-1.1c-.35-1.7-1.85-3-3.65-3s-3.35 1.3-3.65 3H4.5v-3.65L7.35 14H14zm0-7H9.6l1.1-3H14z"/></svg>