<svg xmlns="http://www.w3.org/2000/svg" width="24" height="24" fill="none"><path fill="#1A1A1A" d="M21.75 3.75c.15 0 .25-.1.25-.25V2.25c0-.15-.1-.25-.25-.25h-7.1c-.15 0-.25.1-.25.25V6H9.15c-.1 0-.2.05-.25.15l-2 5.35-4.75 1.45c-.1.05-.15.15-.15.25v7.55c0 .15.1.25.25.25h3.7c.65 1.2 1.9 2 3.3 2 1.45 0 2.7-.8 3.3-2h9.2c.15 0 .25-.1.25-.25V19.5c0-.15-.1-.25-.25-.25h-5.6V3.75zm-12.5 17.5c-1.1 0-2-.9-2-2s.9-2 2-2 2 .9 2 2-.9 2-2 2m5.15-2H13c0-2.05-1.7-3.75-3.75-3.75S5.5 17.2 5.5 19.25H3.75v-4.9l3.6-1.1h7v6zm0-7.75H8.85l1.4-3.75h4.15z"/></svg>