<svg xmlns="http://www.w3.org/2000/svg" width="24" height="24" fill="none"><path fill="#1A1A1A" d="m11.9 16.8-1.4-1.4c-.1-.1-.25-.1-.35 0l-1.9 1.9V2.75c0-.15-.1-.25-.25-.25H6c-.15 0-.25.1-.25.25V17.3l-1.9-1.9c-.1-.1-.25-.1-.35 0l-1.4 1.4c-.1.1-.1.25 0 .35l4.75 4.75c.1.1.25.1.35 0l4.75-4.75c.05-.05.05-.25-.05-.35m10.05-9.6L20.5 8.6c-.1.1-.25.1-.35 0l-1.9-1.9v14.55c0 .15-.1.25-.25.25h-2c-.15 0-.25-.1-.25-.25V6.7l-1.9 1.9c-.1.1-.25.1-.35 0l-1.4-1.4c-.1-.1-.1-.25 0-.35l4.75-4.75c.1-.1.25-.1.35 0l4.75 4.75c.05.05.05.25 0 .35"/></svg>