<svg width="24" height="24" viewBox="0 0 24 24" fill="none" xmlns="http://www.w3.org/2000/svg"><path d="m12.0001 7.3059-3.33548 3.3355-1.556-1.556 3.33548-3.3355-3.33548-3.336L8.66412.858398 12.0001 4.1939l3.336-3.335502L16.8916 2.4139l-3.3355 3.336 3.3355 3.3355-1.556 1.556-3.3355-3.3355Zm11.4655 11.675v-.0105c0-1.4765-1.0805-2.5475-2.569-2.5475-.7445 0-1.378.29-1.723.7815l.1415-1.7825h3.667v-1.6145h-5.3115l-.3405 4.719h1.7925l.014-.027c.078-.151.2005-.2875.3555-.396.217-.159.4945-.243.803-.243.714 0 1.212.472 1.212 1.1475v.011c0 .685-.4985 1.1635-1.212 1.1635-.587 0-1.066-.3325-1.1925-.8285l-.021-.074h-1.8795l.009.1445c.0435.6645.361 1.265.8935 1.69.559.4465 1.3165.6825 2.191.6825 1.896 0 3.1705-1.1315 3.1705-2.816h-.0005Zm-16.10148-1.246v-.011c0-2.5025-1.291-4.0565-3.3695-4.0565S.620117 15.2219.620117 17.7239v.011c0 2.5055 1.293003 4.062 3.374503 4.062s3.3695-1.5565 3.3695-4.062Zm-2.0925-.011v.011c0 1.561-.4535 2.4205-1.2765 2.4205s-1.282-.8825-1.282-2.4205v-.011c0-1.535.4675-2.415 1.282-2.415s1.2765.8575 1.2765 2.415Zm4.406 2.9755c0-.591-.4655-1.0545-1.06-1.0545s-1.0545.473-1.0545 1.0545.463 1.06 1.0545 1.06c.5915 0 1.06-.4655 1.06-1.06Zm6.80498.9575v-1.6145h-3.3625l1.487-1.266c1.2545-1.0865 1.779-1.7065 1.779-2.734v-.011c0-1.4145-1.203-2.365-2.9935-2.365s-3.031 1.0765-3.031 2.6175v.0985h1.9l.01-.1065c.032-.6205.474-1.0215 1.1265-1.0215.5775 0 .981.366.981.89v.0105c0 .449-.165.795-1.143 1.66l-2.7445 2.4115-.017.015v1.4155h6.008Z" fill="#000"/></svg>