<svg xmlns="http://www.w3.org/2000/svg" width="24" height="24" fill="none"><path fill="#1A1A1A" d="M12 3.5c4.7 0 8.5 3.8 8.5 8.5s-3.8 8.5-8.5 8.5-8.5-3.8-8.5-8.5S7.3 3.5 12 3.5M12 1C5.9 1 1 5.9 1 12s4.9 11 11 11 11-4.9 11-11S18.1 1 12 1"/><path fill="#1A1A1A" d="M17.5 8.95c-.15-.55-.55-.95-1.1-1.1-1-.25-4.35-.25-4.35-.25s-3.4 0-4.4.25C7.1 8 6.65 8.45 6.5 9c-.25 1-.25 3-.25 3s0 2.05.25 3.05c.15.55.55.95 1.1 1.1 1 .25 4.35.25 4.35.25s3.4 0 4.35-.25c.55-.15.95-.55 1.1-1.1.25-1 .25-3.05.25-3.05s.1-2.05-.15-3.05m-6.75 5.15V9.85l3.65 2.1z"/></svg>