<svg xmlns="http://www.w3.org/2000/svg" width="24" height="24" fill="none"><path fill="#1A1A1A" d="M8.9 15.15c-.55 0-1.05-.1-1.45-.35s-.7-.55-.95-1c-.2-.4-.35-.9-.35-1.5v-.75c0-.55.1-1.05.35-1.45.2-.4.55-.75.95-.95.4-.25.9-.35 1.45-.35q.825 0 1.35.3c.35.2.65.45.85.8s.3.7.3 1.1v.15H9.8v-.1c0-.15-.05-.25-.1-.4-.05-.1-.15-.2-.25-.3-.1-.05-.3-.1-.5-.1-.35 0-.55.1-.75.35s-.25.6-.25 1v.7c0 .45.1.8.3 1 .2.25.4.35.75.35.2 0 .4-.05.5-.1s.2-.15.25-.25.1-.25.15-.35v-.1h1.6V13q0 .6-.3 1.05c-.2.3-.5.6-.85.75-.4.25-.9.35-1.45.35m6.35 0c-.55 0-1.05-.1-1.45-.35s-.7-.55-.95-1c-.2-.4-.35-.9-.35-1.5v-.75c0-.55.1-1.05.35-1.45.2-.4.55-.75.95-.95.4-.25.9-.35 1.45-.35q.825 0 1.35.3c.35.2.65.45.85.8s.3.7.3 1.1v.15h-1.6v-.1c0-.15-.05-.25-.1-.4-.05-.1-.15-.2-.25-.3-.1-.05-.3-.1-.5-.1-.35 0-.55.1-.75.35s-.25.6-.25 1v.7c0 .45.1.8.3 1 .2.25.4.35.75.35.2 0 .4-.05.5-.1s.2-.15.25-.25.1-.25.15-.35v-.1h1.6V13q0 .6-.3 1.05c-.2.3-.5.6-.85.75-.45.25-.9.35-1.45.35"/><path fill="#1A1A1A" d="M20.25 3.75v16.5H3.75V3.75zM21.7 2H2.3c-.15 0-.3.15-.3.3v19.45c0 .1.15.25.3.25h19.45c.15 0 .3-.15.3-.3V2.3c-.05-.15-.2-.3-.35-.3"/></svg>