<svg xmlns="http://www.w3.org/2000/svg" width="24" height="24" fill="none"><path fill="#1A1A1A" d="M12 3.5c4.7 0 8.5 3.8 8.5 8.5s-3.8 8.5-8.5 8.5-8.5-3.8-8.5-8.5S7.3 3.5 12 3.5M12 1C5.9 1 1 5.9 1 12s4.9 11 11 11 11-4.9 11-11S18.1 1 12 1"/><path fill="#1A1A1A" d="M14.75 8.25c.45.3.8.65 1 1.1s.35.95.35 1.5-.1 1.05-.35 1.5c-.2.45-.55.8-1 1.1-.45.25-1.05.4-1.7.4h-1.3v2.1c0 .15-.1.25-.25.25H9.6c-.15 0-.25-.1-.25-.25V8.1c0-.15.1-.25.25-.25h3.5c.65 0 1.2.15 1.65.4m-1.45 1.7q-.3-.3-.9-.3h-.7v2.45h.7c.25 0 .45-.05.65-.15s.35-.25.45-.4c.1-.2.15-.4.15-.65 0-.45-.1-.75-.35-.95"/></svg>