<svg xmlns="http://www.w3.org/2000/svg" width="24" height="24" fill="none"><path fill="#1A1A1A" d="M12 1C6.2 1 1.5 5.7 1.5 11.5c0 4.95 3.4 9.05 8 10.2.1 0 .15.05.25.15l2.1 2.1c0 .05.1.05.15.05s.15 0 .2-.05l2.1-2.1c.05-.05.15-.1.25-.15 4.6-1.15 8-5.25 8-10.2C22.5 5.7 17.8 1 12 1M8 12.75c-.7 0-1.25-.55-1.25-1.25S7.3 10.25 8 10.25s1.25.55 1.25 1.25S8.7 12.75 8 12.75m4 0c-.7 0-1.25-.55-1.25-1.25s.55-1.25 1.25-1.25 1.25.55 1.25 1.25-.55 1.25-1.25 1.25m4 0c-.7 0-1.25-.55-1.25-1.25s.55-1.25 1.25-1.25 1.25.55 1.25 1.25-.55 1.25-1.25 1.25"/></svg>