<svg width="24" height="24" fill="none" xmlns="http://www.w3.org/2000/svg"><path d="M13.18 10.33c0-.5-.375-.8-1-.8h-1v1.625h.945c.665-.01 1.055-.335 1.055-.825Zm-.905 2.28h-1.06v1.89h1.045c.745 0 1.18-.335 1.18-.945 0-.605-.44-.945-1.165-.945Z" fill="#1A1A1A"/><path d="M12 1a11 11 0 1 0 0 22 11 11 0 0 0 0-22Zm3.925 12.74c0 1.455-1.15 2.42-2.93 2.42h-3.97a.25.25 0 0 1-.25-.25V8.1a.25.25 0 0 1 .25-.25h3.83c1.7 0 2.695.775 2.695 2.075a1.825 1.825 0 0 1-1.685 1.785v.045a2.04 2.04 0 0 1 2.06 1.965v.02Z" fill="#1A1A1A"/></svg>