<svg xmlns="http://www.w3.org/2000/svg" width="24" height="24" fill="none"><path fill="#1A1A1A" d="M2 21.35v.4c0 .15.1.25.25.25h19.5c.15 0 .25-.1.25-.25v-2.4l-7.2-7.25z"/><path fill="#1A1A1A" d="M21.75 2H2.25C2.1 2 2 2.1 2 2.25V18.6l12.85-9.25c.1-.05.25-.05.3.05L22 16.2V2.25c0-.15-.1-.25-.25-.25M10.1 9.7c-.2.5-.7.9-1.25 1.05-.1 0-.25.05-.35.05s-.25 0-.35-.05c-.55-.1-1.05-.5-1.25-1.05-.1-.2-.15-.45-.15-.7s.05-.45.15-.7c.2-.5.7-.9 1.25-1.05.1 0 .25-.05.35-.05s.25 0 .35.05c.55.1 1.05.5 1.25 1.05.1.2.15.45.15.7s-.05.45-.15.7"/></svg>