<svg xmlns="http://www.w3.org/2000/svg" width="24" height="24" fill="none"><path fill="#1A1A1A" d="M20.25 2H3.75c-.15 0-.25.1-.25.25v19.5c0 .15.1.25.25.25h16.5c.15 0 .25-.1.25-.25V2.25c0-.15-.1-.25-.25-.25M15.5 16c0 .15-.1.25-.25.25h-6.5c-.15 0-.25-.1-.25-.25v-1c0-.15.1-.25.25-.25h6.5c.15 0 .25.1.25.25zm0-3.5c0 .15-.1.25-.25.25h-6.5c-.15 0-.25-.1-.25-.25v-1c0-.15.1-.25.25-.25h6.5c.15 0 .25.1.25.25zm0-3.5c0 .15-.1.25-.25.25h-6.5c-.15 0-.25-.1-.25-.25V8c0-.15.1-.25.25-.25h6.5c.15 0 .25.1.25.25z"/></svg>