<svg xmlns="http://www.w3.org/2000/svg" width="24" height="24" fill="none"><path fill="#1A1A1A" d="M18 4.5v15H6v-15zM20.2 2H3.75c-.15 0-.25.1-.25.25v19.5c0 .15.1.25.25.25h16.5c.15 0 .25-.1.25-.25V2.3c0-.15-.15-.3-.3-.3"/><path fill="#1A1A1A" d="M15.25 9.25h-6.5c-.15 0-.25-.1-.25-.25V8c0-.15.1-.25.25-.25h6.5c.15 0 .25.1.25.25v1c0 .15-.1.25-.25.25m0 3.5h-6.5c-.15 0-.25-.1-.25-.25v-1c0-.15.1-.25.25-.25h6.5c.15 0 .25.1.25.25v1c0 .15-.1.25-.25.25m0 3.5h-6.5c-.15 0-.25-.1-.25-.25v-1c0-.15.1-.25.25-.25h6.5c.15 0 .25.1.25.25v1c0 .15-.1.25-.25.25"/></svg>