<svg xmlns="http://www.w3.org/2000/svg" width="24" height="24" fill="none"><path fill="#1A1A1A" d="M21.75 13H20.5c-.15 0-.25.1-.25.25v7h-7c-.15 0-.25.1-.25.25v1.25c0 .15.1.25.25.25h8.5c.15 0 .25-.1.25-.25v-8.5c0-.15-.1-.25-.25-.25m-19.5-2H3.5c.15 0 .25-.1.25-.25v-7h7c.15 0 .25-.1.25-.25V2.25c0-.15-.1-.25-.25-.25h-8.5C2.1 2 2 2.1 2 2.25v8.5c0 .15.1.25.25.25m7.95 2.5H2.25c-.15 0-.25.1-.25.25V15c0 .15.1.25.25.25H7.5L2.1 20.7c-.1.1-.1.25 0 .35l.9.9c.1.1.25.1.35 0l5.4-5.45v5.25c0 .15.1.25.25.25h1.25c.15 0 .25-.1.25-.25V13.8c0-.15-.15-.3-.3-.3"/><path fill="#1A1A1A" d="M2.25 11H3.5c.15 0 .25-.1.25-.25v-7h7c.15 0 .25-.1.25-.25V2.25c0-.15-.1-.25-.25-.25h-8.5C2.1 2 2 2.1 2 2.25v8.5c0 .15.1.25.25.25m11.55-.5h7.95c.15 0 .25-.1.25-.25V9c0-.15-.1-.25-.25-.25H16.5l5.4-5.45c.1-.1.1-.25 0-.35l-.9-.9c-.1-.1-.25-.1-.35 0l-5.4 5.45V2.25c0-.15-.1-.25-.25-.25h-1.25c-.15 0-.25.1-.25.25v7.95c0 .15.15.3.3.3"/></svg>