<svg xmlns="http://www.w3.org/2000/svg" width="24" height="24" fill="none"><path fill="#1A1A1A" d="M11.4 1.5c1.95-.1 3.75.3 5.35 1.15l.95-1.5c.1-.15.35-.15.45.05l2 4.35c.1.15-.05.35-.25.35l-4.8.05c-.2 0-.3-.2-.2-.4l.9-1.45c-1.6-.8-3.45-1.1-5.4-.75-3.75.7-6.7 3.85-7.1 7.7-.55 5.25 3.55 9.7 8.7 9.7 4.75 0 8.6-3.8 8.75-8.5 0-.15.1-.25.25-.25h1.25c.15 0 .25.1.25.25-.15 5.7-4.8 10.25-10.5 10.25-5.95 0-10.8-5-10.5-11.05.25-5.3 4.6-9.65 9.9-9.95"/><path fill="#1A1A1A" d="M9.35 13.65v-.1h1.55v.05c.1.4.5.75 1.05.75.65 0 1.1-.45 1.1-1.05s-.45-1.05-1.1-1.05c-.3 0-.55.1-.7.2s-.25.2-.3.35h-1.5l.3-4h4.5v1.3H11.1l-.15 1.7H11c.25-.45.8-.75 1.5-.75 1.25 0 2.2.9 2.2 2.15 0 1.45-1.1 2.4-2.7 2.4-1.6.05-2.55-.8-2.65-1.95"/></svg>