<svg xmlns="http://www.w3.org/2000/svg" width="24" height="24" fill="none"><path fill="#1A1A1A" d="M12.223 6.638a.25.25 0 0 0-.447 0l-2.011 4.023-3.15-1.633a.25.25 0 0 0-.36.268l1.25 6.75a.25.25 0 0 0 .245.204h8.5a.25.25 0 0 0 .246-.204l1.25-6.75a.25.25 0 0 0-.361-.268l-3.15 1.633z"/><path fill="#1A1A1A" fill-rule="evenodd" d="M1 12C1 5.9 5.9 1 12 1s11 4.9 11 11-4.9 11-11 11S1 18.1 1 12m20.25 0c0-5.1-4.15-9.25-9.25-9.25S2.75 6.9 2.75 12 6.9 21.25 12 21.25s9.25-4.15 9.25-9.25" clip-rule="evenodd"/></svg>