<svg xmlns="http://www.w3.org/2000/svg" width="24" height="24" fill="none"><path fill="#0C0C0C" d="M21.43 17.193c-.002-.614-.641-1.084-1.242-1.074a1.13 1.13 0 0 0-.817.333c-.254.258-.369.666-.318 1.02h-1.6c0-.244.063-.691.138-.891.113-.3.294-.616.537-.855.228-.226.5-.448.802-.559.412-.167.864-.217 1.305-.217.73 0 1.404.15 1.936.546.618.458.891.959.891 1.575 0 .389-.098.797-.23 1.022-.345.582-.72 1.014-1.169 1.49-.596.633-1.246 1.22-1.743 1.677h3.256v1.29h-5.563v-1.049s1.175-.966 1.895-1.665c.51-.496.794-.79 1.207-1.234.318-.338.716-.932.715-1.409m-7.881-4.268V21h1.9V3h-1.9v8.025H3.9V3H2v18h1.9v-8.075z"/></svg>