<svg width="24" height="24" fill="none" xmlns="http://www.w3.org/2000/svg"><path fill-rule="evenodd" clip-rule="evenodd" d="M14.9 11.35c0 1.75 1.5 2.3 1.55 2.3 0 .05-.25.8-.8 1.6-.5.7-.95 1.4-1.75 1.4-.75 0-1-.45-1.9-.45-.85 0-1.15.45-1.85.45-.75.05-1.3-.75-1.8-1.45-1-1.4-1.75-4-.7-5.75.5-.85 1.4-1.4 2.35-1.45.75 0 1.45.5 1.9.5.45 0 1.3-.6 2.2-.5.35 0 1.4.15 2.1 1.15-.1.1-1.3.75-1.3 2.2ZM13.45 7.1c.4-.5.65-1.15.6-1.8-.55 0-1.25.4-1.7.85-.35.45-.7 1.1-.6 1.75.65.1 1.3-.3 1.7-.8Z" fill="#1A1A1A"/><path d="M12 2.75c5.1 0 9.25 4.15 9.25 9.25S17.1 21.25 12 21.25 2.75 17.1 2.75 12 6.9 2.75 12 2.75ZM12 1C5.9 1 1 5.9 1 12s4.9 11 11 11 11-4.9 11-11S18.1 1 12 1Z" fill="#1A1A1A"/></svg>