<svg width="24" height="24" fill="none" xmlns="http://www.w3.org/2000/svg"><path d="M21.25 2.5H2.75c-.15 0-.25.1-.25.25v18.5c0 .15.1.25.25.25h18.5c.15 0 .25-.1.25-.25V2.75c0-.15-.1-.25-.25-.25ZM8.75 19h-1.5c-.15 0-.25-.1-.25-.25v-3.5c0-.15.1-.25.25-.25h1.5c.15 0 .25.1.25.25v3.5c0 .15-.1.25-.25.25Zm4 0h-1.5c-.15 0-.25-.1-.25-.25v-6.5c0-.15.1-.25.25-.25h1.5c.15 0 .25.1.25.25v6.5c0 .15-.1.25-.25.25Zm4 0h-1.5c-.15 0-.25-.1-.25-.25V8.25c0-.15.1-.25.25-.25h1.5c.15 0 .25.1.25.25v10.5c0 .15-.1.25-.25.25Z" fill="#1A1A1A"/></svg>