<svg xmlns="http://www.w3.org/2000/svg" width="24" height="24" fill="none"><path fill="#1A1A1A" d="M12 3.5c4.7 0 8.5 3.8 8.5 8.5s-3.8 8.5-8.5 8.5-8.5-3.8-8.5-8.5S7.3 3.5 12 3.5M12 1C5.9 1 1 5.9 1 12s4.9 11 11 11 11-4.9 11-11S18.1 1 12 1"/><path fill="#1A1A1A" d="M12 10.2c-.95 0-1.75.8-1.75 1.75s.8 1.75 1.75 1.75 1.75-.8 1.75-1.75-.8-1.75-1.75-1.75"/><path fill="#1A1A1A" d="M16.4 7.6c-.55-.55-1.3-.85-2.2-.85H9.85C8 6.75 6.75 8 6.75 9.85v4.35c0 .9.3 1.7.85 2.25s1.35.85 2.2.85h4.3c.85 0 1.65-.3 2.2-.85s.85-1.35.85-2.25V9.85c.1-.95-.2-1.7-.75-2.25M12 14.65c-1.5 0-2.7-1.2-2.7-2.7s1.25-2.7 2.7-2.7 2.75 1.2 2.75 2.7-1.25 2.7-2.75 2.7m2.8-4.85c-.35 0-.65-.3-.65-.65s.3-.65.65-.65.65.3.65.65-.3.65-.65.65"/></svg>