<svg xmlns="http://www.w3.org/2000/svg" width="24" height="24" fill="none"><path fill="#0C0C0C" d="M13.8 5.1a.2.2 0 0 0 .2-.2V3.1a.2.2 0 0 0-.2-.2H2.2a.2.2 0 0 0-.2.2v1.8c0 .11.09.2.2.2z"/><path fill="#0C0C0C" fill-rule="evenodd" d="M6.9 13.949a7.049 7.049 0 1 1 12.75 4.146l3.627 3.627-1.555 1.555-3.628-3.627A7.049 7.049 0 0 1 6.9 13.95m7.049-4.85a4.849 4.849 0 1 0 0 9.698 4.849 4.849 0 0 0 0-9.697" clip-rule="evenodd"/><path fill="#0C0C0C" d="M7 9.4a.2.2 0 0 1-.2.2H2.2a.2.2 0 0 1-.2-.2V7.6c0-.11.09-.2.2-.2h4.6c.11 0 .2.09.2.2zM4.8 14.1a.2.2 0 0 0 .2-.2v-1.8a.2.2 0 0 0-.2-.2H2.2a.2.2 0 0 0-.2.2v1.8c0 .11.09.2.2.2z"/></svg>