<svg xmlns="http://www.w3.org/2000/svg" width="24" height="24" fill="none"><path fill="#0C0C0C" d="M13.8 4.85a.2.2 0 0 0 .2-.2v-1.3a.2.2 0 0 0-.2-.2H2.2a.2.2 0 0 0-.2.2v1.3c0 .11.09.2.2.2z"/><path fill="#0C0C0C" fill-rule="evenodd" d="M7.15 13.949a6.799 6.799 0 1 1 12.17 4.169l3.78 3.78-1.202 1.203-3.78-3.781A6.799 6.799 0 0 1 7.15 13.949m6.799-5.1a5.099 5.099 0 1 0 0 10.198 5.099 5.099 0 0 0 0-10.197" clip-rule="evenodd"/><path fill="#0C0C0C" d="M7 9.15a.2.2 0 0 1-.2.2H2.2a.2.2 0 0 1-.2-.2v-1.3c0-.11.09-.2.2-.2h4.6c.11 0 .2.09.2.2zM4.8 13.85a.2.2 0 0 0 .2-.2v-1.3a.2.2 0 0 0-.2-.2H2.2a.2.2 0 0 0-.2.2v1.3c0 .11.09.2.2.2z"/></svg>