<svg xmlns="http://www.w3.org/2000/svg" width="24" height="24" fill="none"><path fill="#1A1A1A" d="M22.25 9.5h-2l1.15-4.2c.05-.15-.1-.3-.25-.3h-2c-.1 0-.2.1-.25.2l-1.15 4.3H14.5l-1.2-4.3c-.05-.1-.15-.2-.25-.2h-2.1c-.1 0-.2.1-.25.2L9.5 9.5H6.2L5 5.2c0-.1-.1-.2-.2-.2h-2c-.15 0-.3.15-.25.3l1.2 4.2h-2c-.15 0-.25.1-.25.25v2c0 .15.1.25.25.25h2.7l2.15 7.8c.05.1.15.2.25.2h2.1c.1 0 .2-.1.25-.2l2.15-7.8h1.35l2.15 7.8c.05.1.15.2.25.2h2.1c.1 0 .2-.1.25-.2l2.1-7.8h2.7c.15 0 .25-.1.25-.25v-2c0-.15-.1-.25-.25-.25M7.9 15.45 6.9 12h1.9zm8.2 0L15.15 12h1.9z"/></svg>