<svg fill="none" height="24" viewBox="0 0 24 24" width="24" xmlns="http://www.w3.org/2000/svg"><path d="m3.72194 9.27862c.08101.17371.17009.34041.26624.50007-1.59888.19815-2.96531 1.05541-3.579489 1.98561.094735 1.5783 1.573649 3.7863 3.988469 4.4334.30539.0818.61031.1345.91174.1615-.82934 1.2027-1.06644 2.6621-.79998 3.6568 1.13151.9162 3.52092 1.2906 5.40793.0651 1.11925-.7268 1.79615-1.844 2.08315-2.9262.287 1.0822.9639 2.1994 2.0831 2.9262 1.8871 1.2255 4.2765.8511 5.408-.0651.2664-.9947.0293-2.4541-.8001-3.6569.3011-.027.6057-.0797.9107-.1614 2.4149-.6471 3.8938-2.8551 3.9885-4.4334-.614-.93-1.9801-1.78714-3.5786-1.9855.0962-.15969.1853-.32643.2663-.50018 1.0566-2.26577.3158-4.81796-.8324-5.90505-1.5707-.18077-4.002.89226-5.0586 3.15803-.9421 2.02038-.4551 4.2685.4755 5.5025-.5562.7556-.8791 1.5819-.9294 2.2867-.7694.108-1.4538.3816-1.933.7486-.4794-.3671-1.1642-.6408-1.9341-.7487-.0504-.7047-.37306-1.5306-.92891-2.2859.93091-1.2339 1.41821-3.48246.47595-5.5032-1.05654-2.26577-3.48782-3.3388-5.05859-3.15803-1.14815 1.08709-1.88895 3.63928-.83241 5.90505z" fill="#0c0c0c"/></svg>