<svg xmlns="http://www.w3.org/2000/svg" width="24" height="24" fill="none"><path fill="#000" d="M10.798 5.75 7.462 2.414l1.203-1.202L12 4.548l3.335-3.336 1.203 1.203-3.337 3.336 3.337 3.335-1.203 1.203L12 6.953l-3.335 3.336-1.203-1.203zm1.244 14.046c-.507 0-.904.397-.904.904s.397.91.904.91.91-.4.91-.91-.4-.904-.91-.904m-2.487-4.938c.564.684.863 1.676.863 2.867v.01c0 1.192-.299 2.184-.863 2.87-.563.682-1.378 1.043-2.356 1.043-.979 0-1.795-.361-2.359-1.044-.566-.686-.866-1.678-.866-2.869v-.01c0-1.19.3-2.182.866-2.867.564-.68 1.38-1.04 2.359-1.04s1.794.36 2.356 1.04m-.93 2.867c0-1.654-.506-2.566-1.426-2.566s-1.432.935-1.432 2.566v.01c0 1.634.522 2.571 1.432 2.571s1.426-.937 1.426-2.57zm9.067-1.152c-.74 0-1.361.303-1.659.81l-.029.05h-.203l.171-2.16h3.656v-1.316h-5.022l-.319 4.42h1.542c.09-.152.217-.287.37-.395.244-.177.552-.271.892-.271.802 0 1.362.533 1.362 1.298v.01c0 .774-.56 1.314-1.362 1.314-.643 0-1.172-.362-1.327-.902h-1.607c.096 1.327 1.273 2.217 2.934 2.217 1.807 0 3.021-1.072 3.021-2.667v-.01c0-1.39-1.017-2.398-2.419-2.398"/></svg>