<svg xmlns="http://www.w3.org/2000/svg" width="24" height="24" fill="none"><path fill="#0C0C0C" d="M20.358 22.74c-1.678 0-2.843-.823-3-2.106h1.591c.116.513.669.854 1.403.854.803 0 1.343-.43 1.343-1.068v-.01c0-.71-.544-1.118-1.494-1.118h-.693v-1.037h.683c.832 0 1.369-.415 1.369-1.058v-.01c0-.623-.467-1.01-1.219-1.01-.702 0-1.206.349-1.308.897H17.54c.137-1.275 1.202-2.063 2.802-2.063s2.75.749 2.75 1.907v.01c0 .974-.767 1.646-1.485 1.79l-.12.024.134.014c1.13.114 1.777.838 1.777 1.765v.011c0 .656-.277 1.207-.803 1.596-.54.4-1.314.612-2.236.612m-6.81-9.815V21h1.9V3h-1.9v8.026H3.9V3H2v18h1.9v-8.075z"/></svg>