<svg xmlns="http://www.w3.org/2000/svg" width="24" height="24" fill="none"><path fill="#1A1A1A" d="M17.25 13.5h-3.5c-.15 0-.25.1-.25.25v3.5c0 .15.1.25.25.25h3.5c.15 0 .25-.1.25-.25v-3.5c0-.15-.1-.25-.25-.25"/><path fill="#1A1A1A" d="M21.75 4h-4.6V2.25C17.1 2.1 17 2 16.9 2h-1.25c-.15 0-.25.1-.25.25V4H8.6V2.25c0-.15-.1-.25-.2-.25H7.15c-.15 0-.25.1-.25.25V4H2.25C2.1 4 2 4.1 2 4.25v17.5c0 .15.1.25.25.25h19.5c.15 0 .25-.1.25-.25V4.25c0-.15-.1-.25-.25-.25m-1.5 16.25H3.75V5.75h3.1V7.5c0 .15.1.25.25.25h1.25c.15 0 .25-.1.25-.25V5.75h6.75V7.5c0 .15.1.25.25.25h1.25c.15 0 .25-.1.25-.25V5.75h3.1v14.5z"/></svg>