<svg xmlns="http://www.w3.org/2000/svg" width="24" height="24" fill="none"><g fill="#0c0c0c"><path d="M2.65 10.6a.25.25 0 0 1-.25-.25V2.4a.25.25 0 0 1 .25-.25h18.7a.25.25 0 0 1 .25.25v7.95a.25.25 0 0 1-.25.25zm0 11.25a.25.25 0 0 1-.25-.25v-7.95a.25.25 0 0 1 .25-.25h8.1a.25.25 0 0 1 .25.25v7.95a.25.25 0 0 1-.25.25z"/><path fill-rule="evenodd" d="M20.85 15.15v-.4a3.1 3.1 0 1 0-6.2 0v.4H13.4a.25.25 0 0 0-.25.25v6.2c0 .138.112.25.25.25h8.7a.25.25 0 0 0 .25-.25v-6.2a.25.25 0 0 0-.25-.25zm-4 0h1.8v-.4a.9.9 0 1 0-1.8 0z" clip-rule="evenodd"/></g></svg>