<svg width="24" height="24" fill="none" xmlns="http://www.w3.org/2000/svg"><path d="M21.75 13H20.5c-.15 0-.25.1-.25.25v7h-7c-.15 0-.25.1-.25.25v1.25c0 .15.1.25.25.25h8.5c.15 0 .25-.1.25-.25v-8.5c0-.15-.1-.25-.25-.25Zm-19.5-2H3.5c.15 0 .25-.1.25-.25v-7h7c.15 0 .25-.1.25-.25V2.25c0-.15-.1-.25-.25-.25h-8.5C2.1 2 2 2.1 2 2.25v8.5c0 .15.1.25.25.25Zm.05 11h7.95c.15 0 .25-.1.25-.25V20.5c0-.15-.1-.25-.25-.25H5l5.45-5.45c.1-.1.1-.25 0-.35l-.9-.9c-.1-.1-.25-.1-.35 0L3.75 19v-5.25c0-.15-.1-.25-.25-.25H2.25c-.15 0-.25.1-.25.25v7.95c0 .15.15.3.3.3Z" fill="#1A1A1A"/><path d="M2.25 11H3.5c.15 0 .25-.1.25-.25v-7h7c.15 0 .25-.1.25-.25V2.25c0-.15-.1-.25-.25-.25h-8.5C2.1 2 2 2.1 2 2.25v8.5c0 .15.1.25.25.25ZM21.7 2h-7.95c-.15 0-.25.1-.25.25V3.5c0 .15.1.25.25.25H19L13.6 9.2c-.1.1-.1.25 0 .35l.9.9c.1.1.25.1.35 0L20.25 5v5.25c0 .15.1.25.25.25h1.25c.15 0 .25-.1.25-.25V2.3c0-.15-.15-.3-.3-.3Z" fill="#1A1A1A"/></svg>