<svg xmlns="http://www.w3.org/2000/svg" width="24" height="24" fill="none"><path fill="#1A1A1A" d="M12 3.5c4.7 0 8.5 3.8 8.5 8.5s-3.8 8.5-8.5 8.5-8.5-3.8-8.5-8.5S7.3 3.5 12 3.5M12 1C5.9 1 1 5.9 1 12s4.9 11 11 11 11-4.9 11-11S18.1 1 12 1"/><path fill="#1A1A1A" d="M9.75 11h-2c-.15 0-.25-.1-.25-.25v-2c0-.15.1-.25.25-.25h2c.15 0 .25.1.25.25v2c0 .15-.15.25-.25.25m5 5.5h-5.5c-.15 0-.25-.1-.25-.25v-2c0-.15.1-.25.25-.25h5.5c.15 0 .25.1.25.25v2c0 .15-.1.25-.25.25m1.5-5.5h-2c-.15 0-.25-.1-.25-.25v-2c0-.15.1-.25.25-.25h2c.15 0 .25.1.25.25v2c0 .15-.15.25-.25.25"/></svg>