<svg width="24" height="24" viewBox="0 0 24 24" fill="none" xmlns="http://www.w3.org/2000/svg">
<path d="M22.8499 3.40088C22.988 3.40088 23.0999 3.51281 23.0999 3.65088V14H20.8999V5.60088H3.0999V18.399H14.5V20.599H1.1499C1.01183 20.599 0.899902 20.4871 0.899902 20.349V3.65088C0.899902 3.51281 1.01183 3.40088 1.1499 3.40088H22.8499Z" fill="#0C0C0C"/>
<path d="M4.625 7.5H6.375V9.25H4.625V7.5Z" fill="#0C0C0C"/>
<path d="M4.625 11.25H6.375V13H4.625V11.25Z" fill="#0C0C0C"/>
<path d="M6.375 15H4.625V16.75H6.375V15Z" fill="#0C0C0C"/>
<path d="M7.875 7.5H9.625V9.25H7.875V7.5Z" fill="#0C0C0C"/>
<path d="M9.625 11.25H7.875V13H9.625V11.25Z" fill="#0C0C0C"/>
<path d="M7.875 15H16.125V16.75H7.875V15Z" fill="#0C0C0C"/>
<path d="M12.875 7.5H11.125V9.25H12.875V7.5Z" fill="#0C0C0C"/>
<path d="M11.125 11.25H12.875V13H11.125V11.25Z" fill="#0C0C0C"/>
<path d="M16.125 7.5H14.375V9.25H16.125V7.5Z" fill="#0C0C0C"/>
<path d="M14.375 11.25H16.125V13H14.375V11.25Z" fill="#0C0C0C"/>
<path d="M19.375 7.5H17.625V9.25H19.375V7.5Z" fill="#0C0C0C"/>
<path d="M17.625 11.25H19.375V13H17.625V11.25Z" fill="#0C0C0C"/>
<path d="M19.1502 15V20.25L17.2884 18.3421L16.2119 19.6579L20.0002 22.8483L23.7884 19.6579L22.7119 18.3421L20.8502 20.25V15H19.1502Z" fill="#0C0C0C"/>
</svg>
