<svg xmlns="http://www.w3.org/2000/svg" width="24" height="24" fill="none"><path fill="#0C0C0C" d="M22.85 3.4a.25.25 0 0 1 .25.25V14h-2.2V5.6H3.1v12.8h11.4v2.2H1.15a.25.25 0 0 1-.25-.25V3.651a.25.25 0 0 1 .25-.25z"/><path fill="#0C0C0C" d="M4.625 7.5h1.75v1.75h-1.75zm0 3.75h1.75V13h-1.75zM6.375 15h-1.75v1.75h1.75zm1.5-7.5h1.75v1.75h-1.75zm1.75 3.75h-1.75V13h1.75zM7.875 15h8.25v1.75h-8.25zm5-7.5h-1.75v1.75h1.75zm-1.75 3.75h1.75V13h-1.75zm5-3.75h-1.75v1.75h1.75zm-1.75 3.75h1.75V13h-1.75zm5-3.75h-1.75v1.75h1.75zm-1.75 3.75h1.75V13h-1.75zM19.15 15v5.25l-1.862-1.908-1.076 1.316L20 22.848l3.788-3.19-1.076-1.316-1.862 1.908V15z"/></svg>