<svg xmlns="http://www.w3.org/2000/svg" width="24" height="24" fill="none"><path fill="#1A1A1A" d="M16.75 17h-9.5c-.15 0-.25-.1-.25-.25V15.5c0-.15.1-.25.25-.25h9.5c.15 0 .25.1.25.25v1.25c0 .15-.1.25-.25.25"/><path fill="#1A1A1A" d="M12 2.75c5.1 0 9.25 4.15 9.25 9.25S17.1 21.25 12 21.25 2.75 17.1 2.75 12 6.9 2.75 12 2.75M12 1C5.9 1 1 5.9 1 12s4.9 11 11 11 11-4.9 11-11S18.1 1 12 1"/><path fill="#1A1A1A" d="m12.2 14.15 4.4-4.4c.1-.1.1-.25 0-.35l-.85-.9c-.1-.1-.25-.1-.35 0L12.9 11V5.65c0-.15-.1-.25-.25-.25H11.4c-.15 0-.25.1-.25.25V11l-2.5-2.5c-.1-.1-.25-.1-.35 0l-.9.9c-.1.1-.1.25 0 .35l4.4 4.4c.1.1.3.1.4 0"/></svg>