<svg width="480" height="308" viewBox="0 0 480 308" fill="none" xmlns="http://www.w3.org/2000/svg">
<rect width="480" height="307.95" rx="24" fill="#1434CB"/>
<path d="M192.108 101.678L148.156 206.545H119.48L97.8504 122.856C96.5373 117.702 95.3955 115.813 91.4019 113.642C84.8816 110.104 74.1142 106.786 64.6406 104.726L65.2841 101.678H111.443C117.327 101.678 122.617 105.595 123.952 112.371L135.376 173.052L163.607 101.677H192.108V101.678ZM304.465 172.308C304.581 144.631 266.193 143.106 266.458 130.742C266.54 126.98 270.122 122.979 277.965 121.958C281.852 121.449 292.561 121.061 304.708 126.651L309.473 104.413C302.946 102.044 294.548 99.7637 284.098 99.7637C257.285 99.7637 238.415 114.018 238.256 134.428C238.082 149.525 251.724 157.949 262.002 162.966C272.576 168.103 276.123 171.404 276.083 176C276.008 183.034 267.65 186.139 259.839 186.262C246.204 186.471 238.292 182.572 231.985 179.64L227.068 202.614C233.407 205.522 245.106 208.059 257.236 208.186C285.735 208.186 304.378 194.109 304.465 172.308M375.27 206.546H400.36L378.46 101.678H355.302C350.095 101.678 345.703 104.71 343.758 109.372L303.051 206.545H331.536L337.191 190.881H371.995L375.27 206.545V206.546ZM345.001 169.39L359.28 130.017L367.498 169.39H345.001ZM230.868 101.678L208.436 206.545H181.309L203.75 101.678H230.868V101.678Z" fill="white"/>
</svg>
