<svg width="480" height="308" viewBox="0 0 480 308" fill="none" xmlns="http://www.w3.org/2000/svg">
<g clip-path="url(#clip0_63693_488519)">
<path d="M5.27344 15.8125V291.197C5.27344 296.994 10.016 301.736 15.8125 301.736H308.165C390 301.736 456.396 235.393 456.396 153.505C456.396 71.6693 390.053 5.27344 308.165 5.27344H15.8125C10.016 5.27344 5.27344 10.016 5.27344 15.8125Z" fill="white"/>
<path d="M40.8904 120.205H22.2363V185.442H40.8377C50.6917 185.442 57.8582 183.123 64.1289 177.906C71.5589 171.741 75.9853 162.467 75.9853 152.876C75.9853 133.642 61.5996 120.205 40.9431 120.205H40.8904ZM55.7504 169.212C51.7456 172.795 46.5815 174.376 38.361 174.376H34.9358V131.218H38.361C46.5815 131.218 51.5875 132.694 55.7504 136.488C60.1768 140.387 62.8116 146.5 62.8116 152.718C62.8116 158.936 60.1768 165.259 55.7504 169.159V169.212Z" fill="#231F20"/>
<path d="M94.4808 120.205H81.7812V185.442H94.4808V120.205Z" fill="#231F20"/>
<path d="M125.619 145.234C117.978 142.389 115.765 140.545 115.765 137.014C115.765 132.904 119.77 129.795 125.25 129.795C129.044 129.795 132.206 131.376 135.526 135.064L142.165 126.37C136.685 121.574 130.151 119.15 122.984 119.15C111.444 119.15 102.644 127.16 102.644 137.857C102.644 146.868 106.754 151.452 118.716 155.721C123.669 157.46 126.251 158.672 127.516 159.409C130.045 161.043 131.31 163.414 131.31 166.154C131.31 171.424 127.094 175.376 121.403 175.376C115.343 175.376 110.443 172.32 107.492 166.681L99.2715 174.586C105.121 183.175 112.182 187.022 121.878 187.022C135.104 187.022 144.378 178.222 144.378 165.627C144.378 155.247 140.11 150.557 125.619 145.287V145.234Z" fill="#231F20"/>
<path d="M148.389 152.863C148.389 172.044 163.459 186.904 182.799 186.904C188.279 186.904 192.969 185.85 198.765 183.11V168.145C193.654 173.256 189.175 175.311 183.378 175.311C170.573 175.311 161.457 166.037 161.457 152.811C161.457 140.269 170.837 130.415 182.799 130.415C188.858 130.415 193.443 132.576 198.765 137.74V122.774C193.18 119.929 188.595 118.77 183.115 118.77C163.828 118.77 148.389 133.946 148.389 152.916V152.863Z" fill="#231F20"/>
<path d="M299.674 163.995L282.232 120.205H268.373L296.038 187.075H302.888L331.08 120.205H317.274L299.674 163.995Z" fill="#231F20"/>
<path d="M336.826 185.442H372.922V174.376H349.526V156.775H372.026V145.71H349.526V131.271H372.922V120.205H336.826V185.442Z" fill="#231F20"/>
<path d="M423.303 139.439C423.303 127.214 414.871 120.205 400.222 120.205H381.357V185.442H394.057V159.252H395.743L413.343 185.442H428.994L408.443 157.935C418.033 155.985 423.303 149.451 423.303 139.439V139.439ZM397.798 150.189H394.057V130.428H397.956C405.861 130.428 410.182 133.748 410.182 140.124C410.182 146.5 405.861 150.189 397.746 150.189H397.798Z" fill="#231F20"/>
<path d="M433.423 123.637C433.423 122.478 432.632 121.846 431.262 121.846H429.418V127.589H430.788V125.376L432.422 127.589H434.108L432.211 125.218C433.001 125.007 433.476 124.428 433.476 123.637H433.423ZM430.999 124.428H430.788V122.9H431.052C431.737 122.9 432.105 123.163 432.105 123.637C432.105 124.112 431.737 124.428 431.052 124.428H430.999Z" fill="#231F20"/>
<path d="M431.524 119.678C428.731 119.678 426.518 121.891 426.518 124.684C426.518 127.477 428.783 129.69 431.524 129.69C434.264 129.69 436.477 127.424 436.477 124.684C436.477 121.944 434.264 119.678 431.524 119.678ZM431.524 128.794C429.31 128.794 427.519 126.95 427.519 124.684C427.519 122.418 429.31 120.574 431.524 120.574C433.737 120.574 435.476 122.471 435.476 124.684C435.476 126.897 433.684 128.794 431.524 128.794Z" fill="#231F20"/>
<path d="M271.958 152.722C271.958 171.798 256.519 187.29 237.39 187.29C218.262 187.29 202.822 171.851 202.822 152.722C202.822 133.594 218.262 118.154 237.39 118.154C256.519 118.154 271.958 133.594 271.958 152.722Z" fill="#F47922"/>
<path d="M464.191 0H15.8085C7.06114 0 0 7.06115 0 15.8085V291.193C0 299.941 7.06114 307.002 15.8085 307.002H464.191C472.938 307.002 480 299.941 480 291.193V15.8085C480 7.06115 472.938 0 464.191 0ZM456.392 153.501C456.392 235.336 390.049 301.732 308.161 301.732H15.8085C10.0121 301.732 5.26951 296.99 5.26951 291.193V15.8085C5.26951 10.0121 10.0121 5.26951 15.8085 5.26951H308.161C389.996 5.26951 456.392 71.6127 456.392 153.501Z" fill="#F47922"/>
</g>
<defs>
<clipPath id="clip0_63693_488519">
<rect width="480" height="307.002" fill="white"/>
</clipPath>
</defs>
</svg>
