<svg width="480" height="308" viewBox="0 0 480 308" fill="none" xmlns="http://www.w3.org/2000/svg">
<rect width="480" height="307.95" rx="23.9961" fill="white"/>
<path d="M304.872 157.872C311.818 158.023 318.802 157.565 325.72 158.11C332.725 159.417 334.414 170.021 328.19 173.494C323.943 175.782 318.899 174.346 314.295 174.749H304.872V157.872V157.872ZM329.736 138.769C331.279 144.215 326.028 149.105 320.783 148.355H304.872C304.984 143.219 304.654 137.645 305.034 132.78C311.408 132.959 317.84 132.414 324.177 133.065C326.9 133.749 329.178 135.987 329.736 138.769V138.769ZM368.026 58.0082C368.322 68.4085 368.069 79.3585 368.154 89.9697C368.134 133.111 368.195 176.252 368.12 219.396C367.84 235.564 353.51 249.613 337.451 249.936C321.378 250.001 305.301 249.946 289.225 249.964V184.743C306.741 184.652 324.265 184.926 341.774 184.606C349.896 184.096 358.793 178.737 359.171 169.8C360.127 160.824 351.664 154.616 343.628 153.636C340.54 153.555 340.63 152.735 343.628 152.377C351.292 150.721 357.311 142.79 355.056 134.847C353.134 126.493 343.899 123.259 336.218 123.276C320.556 123.169 304.891 123.261 289.229 123.23C289.33 111.054 289.018 98.8648 289.397 86.6977C290.638 70.8212 305.329 57.7283 321.162 58.0123C336.785 58.01 352.406 58.01 368.026 58.0094V58.0082Z" fill="url(#paint0_linear_63693_488523)"/>
<path d="M112.243 88.345C112.643 72.2023 127.035 58.2685 143.072 58.0325C159.087 57.9832 175.103 58.0254 191.118 58.0112C191.074 112.021 191.205 166.037 191.052 220.044C190.435 235.991 176.2 249.659 160.337 249.942C144.292 250 128.246 249.95 112.201 249.966V182.546C127.786 186.228 144.13 187.795 160.029 185.353C169.533 183.824 179.932 179.157 183.15 169.298C185.517 160.865 184.184 151.989 184.537 143.334V123.233H157.021C156.897 136.527 157.274 149.845 156.822 163.123C156.08 171.285 147.996 176.47 140.298 176.193C130.75 176.294 111.831 169.275 111.831 169.275C111.783 144.367 112.108 113.173 112.243 88.3474V88.345Z" fill="url(#paint1_linear_63693_488523)"/>
<path d="M201.377 131.314C199.929 131.622 201.086 126.381 200.716 124.393C200.815 111.825 200.51 99.2422 200.884 86.6823C202.122 70.7387 216.926 57.6131 232.822 57.9863H279.637C279.593 111.996 279.723 166.012 279.571 220.02C278.953 235.966 264.717 249.634 248.854 249.917C232.809 249.977 216.762 249.926 200.715 249.942V176.074C211.674 185.065 226.569 186.464 240.222 186.489C250.515 186.485 260.747 184.898 270.743 182.525V168.992C259.478 174.606 246.237 178.171 233.75 174.946C225.039 172.778 218.716 164.361 218.857 155.373C217.848 146.025 223.327 136.157 232.514 133.378C243.92 129.808 256.351 132.538 267.042 137.18C269.333 138.38 271.658 139.867 270.742 136.039V125.402C252.861 121.148 233.832 119.583 215.867 124.21C210.667 125.677 205.601 127.901 201.377 131.315V131.314Z" fill="url(#paint2_linear_63693_488523)"/>
<rect x="7.49999" y="7.49999" width="465" height="292.95" rx="16.4961" stroke="black" stroke-opacity="0.15" stroke-width="15"/>
<defs>
<linearGradient id="paint0_linear_63693_488523" x1="288.686" y1="149.882" x2="367.656" y2="149.882" gradientUnits="userSpaceOnUse">
<stop stop-color="#007A41"/>
<stop offset="1" stop-color="#5CB531"/>
</linearGradient>
<linearGradient id="paint1_linear_63693_488523" x1="110.522" y1="155.827" x2="189.824" y2="155.827" gradientUnits="userSpaceOnUse">
<stop stop-color="#1F296F"/>
<stop offset="1" stop-color="#006EBB"/>
</linearGradient>
<linearGradient id="paint2_linear_63693_488523" x1="200.6" y1="151.719" x2="279.622" y2="151.719" gradientUnits="userSpaceOnUse">
<stop stop-color="#6E2C30"/>
<stop offset="1" stop-color="#E60039"/>
</linearGradient>
</defs>
</svg>
