<svg width="480" height="308" viewBox="0 0 480 308" fill="none" xmlns="http://www.w3.org/2000/svg">
<rect width="480" height="307.95" rx="23.9961" fill="#333333"/>
<path fill-rule="evenodd" clip-rule="evenodd" d="M301.542 249.947C353.944 249.947 396.425 206.974 396.425 153.963C396.425 100.952 353.944 57.9785 301.542 57.9785C278.057 57.9785 256.565 66.6098 239.997 80.9076C223.428 66.6098 201.936 57.9786 178.451 57.9786C126.049 57.9786 83.5684 100.952 83.5684 153.963C83.5684 206.974 126.049 249.947 178.451 249.947C201.936 249.947 223.428 241.316 239.997 227.018C256.565 241.316 278.057 249.947 301.542 249.947Z" fill="#EB001B"/>
<path fill-rule="evenodd" clip-rule="evenodd" d="M239.998 227.018C260.399 209.413 273.336 183.216 273.336 153.963C273.336 124.71 260.399 98.5129 239.998 80.9076C256.567 66.6098 278.059 57.9785 301.543 57.9785C353.946 57.9785 396.426 100.952 396.426 153.963C396.426 206.974 353.946 249.947 301.543 249.947C278.059 249.947 256.567 241.316 239.998 227.018Z" fill="#F79E1B"/>
<path fill-rule="evenodd" clip-rule="evenodd" d="M239.998 227.019C260.399 209.413 273.335 183.217 273.335 153.963C273.335 124.71 260.399 98.5135 239.998 80.9082C219.596 98.5135 206.66 124.71 206.66 153.963C206.66 183.217 219.596 209.413 239.998 227.019Z" fill="#FF5F00"/>
</svg>
