<svg fill="none" height="24" viewBox="0 0 24 24" width="24" xmlns="http://www.w3.org/2000/svg"><g fill="#0c0c0c"><path d="m15.6489 8.64893-4.6489 4.64897-2.64899-2.649-1.20208 1.2021 3.85107 3.851 5.851-5.85099z"/><path clip-rule="evenodd" d="m18.9184 3.4986-3.3823-.03511-2.4164-2.36678c-.3927-.384602-.589-.576903-.8145-.649139-.1984-.063558-.4117-.063558-.6101 0-.2255.072237-.4219.264537-.8145.649139l-2.41645 2.36678-3.38225.03511c-.54961.0057-.82441.00855-1.03495.11693-.18524.09535-.33607.24618-.43142.43142-.10838.21054-.11123.48534-.11693 1.03495l-.03511 3.38225-2.36679 2.41645c-.384594.3926-.576893.589-.649129.8145-.063558.1984-.063558.4117 0 .6101.072236.2255.264537.4218.649139.8145l2.36678 2.4164.03511 3.3823c.0057.5496.00855.8244.11693 1.0349.09535.1853.24618.3361.43142.4315.21053.1083.48534.1112 1.03495.1169l3.38225.0351 2.41645 2.3668c.3926.3846.589.5769.8145.6491.1984.0636.4117.0636.6101 0 .2255-.0722.4218-.2645.8145-.6491l2.4164-2.3668 3.3823-.0351c.5496-.0057.8244-.0086 1.0349-.1169.1853-.0954.3361-.2462.4315-.4315.1083-.2105.1112-.4853.1169-1.0349l.0351-3.3823 2.3668-2.4164c.3846-.3926.5769-.589.6491-.8145.0636-.1984.0636-.4117 0-.6101-.0722-.2255-.2645-.4219-.6491-.8145l-2.3668-2.41645-.0351-3.38224c-.0057-.54962-.0086-.82442-.1169-1.03495-.0954-.18525-.2462-.33608-.4315-.43143-.2105-.10838-.4853-.11123-1.0349-.11693zm-6.9183-1.11886 2.8349 2.77657 3.9678.04118.0412 3.96784 2.7765 2.83477-2.7765 2.8349-.0412 3.9678-3.9678.0412-2.8349 2.7765-2.83477-2.7765-3.96784-.0412-.04118-3.9678-2.77657-2.8349 2.77657-2.83477.04118-3.96784 3.96784-.04118z" fill-rule="evenodd"/></g></svg>