<svg xmlns="http://www.w3.org/2000/svg" width="24" height="24" fill="none"><path fill="#0C0C0C" d="m20.035 4.906-7.997-3-.035-.013-.035.013-8.003 3-.065.025v9.071c0 .023.073 2.314 2.033 4.073 1.936 1.737 5.98 3.99 6.021 4.013l.049.027.048-.027c.04-.022 3.954-2.21 6.014-4.012C20.076 16.316 20.1 14.023 20.1 14V4.931zM17.132 9.69l-4.826 4.826-1.113 1.114-.075.074-.074-.074-4.177-4.176-.074-.075.074-.074L8.352 9.82l.075-.074.074.074 2.655 2.654 4.38-4.38.074-.074.075.074 1.447 1.447.074.075z"/></svg>