<svg xmlns="http://www.w3.org/2000/svg" width="24" height="24" fill="none"><path fill="#0C0C0C" d="m11.196 12.445 4.171-4.172.071-.07.071.07 1.38 1.38.07.07-.07.071-4.597 4.596-1.06 1.061-.072.07-.07-.07-3.978-3.977-.07-.071.07-.071 1.414-1.414.07-.07.072.07zM20.1 4.931v9.07c0 .022-.024 2.315-2.034 4.075-2.06 1.802-5.975 3.99-6.014 4.012l-.049.027-.048-.027c-.041-.023-4.086-2.276-6.021-4.013-1.96-1.759-2.033-4.05-2.034-4.073v-9.07l.065-.025 8.003-3 .035-.014.035.013 7.997 3zm-2.2 1.525-5.898-2.213L6.1 6.456v7.489c.014.169.158 1.465 1.302 2.493 1.227 1.1 3.585 2.539 4.598 3.138 1.196-.71 3.336-2.035 4.617-3.156 1.178-1.03 1.276-2.306 1.283-2.448z"/></svg>