<svg width="480" height="308" viewBox="0 0 480 308" fill="none" xmlns="http://www.w3.org/2000/svg">
<rect width="480" height="307.95" rx="23.9961" fill="white"/>
<path d="M146.67 57.9785H223.264C233.945 57.9785 240.611 66.6881 238.102 77.4406L202.44 230.521C199.931 241.238 189.214 249.947 178.533 249.947H101.939C91.2585 249.947 84.5919 241.238 87.1008 230.521L122.763 77.4406C125.236 66.6881 135.953 57.9785 146.67 57.9785Z" fill="#ED171F"/>
<path d="M216.881 57.9785H304.944C315.625 57.9785 310.822 66.6881 308.313 77.4406L272.651 230.521C270.142 241.238 270.93 249.947 260.213 249.947H172.15C161.433 249.947 154.803 241.238 157.312 230.521L192.974 77.4406C195.483 66.6881 206.2 57.9785 216.881 57.9785Z" fill="#082F67"/>
<path d="M301.476 57.9785H378.07C388.751 57.9785 395.418 66.6881 392.909 77.4406L357.246 230.521C354.737 241.238 344.056 249.947 333.304 249.947H256.746C246.029 249.947 239.398 241.238 241.907 230.521L277.57 77.4406C280.079 66.6881 290.76 57.9785 301.476 57.9785Z" fill="#006A65"/>
<path fill-rule="evenodd" clip-rule="evenodd" d="M288.675 201.996H295.879L297.958 195.042H290.754L288.675 201.996ZM294.446 182.82L291.973 191.028C291.973 191.028 294.697 189.63 296.202 189.2C297.671 188.842 299.929 188.591 299.929 188.591L301.686 182.856H294.481L294.446 182.82ZM298.03 170.992L295.628 178.878C295.628 178.878 298.317 177.659 299.786 177.265C301.256 176.87 303.514 176.727 303.514 176.727L305.234 170.992H298.03V170.992ZM314.015 170.992L304.696 201.888H307.205L305.27 208.268H302.761L302.187 210.239H293.299L293.908 208.268H275.844L277.672 202.354H279.5L288.962 170.992L290.861 164.648H299.929L298.998 167.838C298.998 167.838 301.399 166.082 303.693 165.509C305.987 164.899 319.105 164.684 319.105 164.684L317.169 170.957H314.051L314.015 170.992Z" fill="white"/>
<path d="M318.031 164.736H327.709L327.816 168.356C327.744 168.966 328.282 169.252 329.393 169.252H331.364L329.572 175.202H324.339C319.823 175.525 318.103 173.589 318.21 171.403L318.031 164.736V164.736Z" fill="white"/>
<path d="M319.282 192.965H310.07L311.647 187.66H322.185L323.69 182.822H313.296L315.088 176.836H344.048L342.22 182.822H332.507L331.002 187.66H340.751L339.138 192.965H328.601L326.737 195.187H331.002L332.041 201.854C332.149 202.499 332.185 202.929 332.364 203.216C332.579 203.466 333.869 203.574 334.586 203.574H335.876L333.905 210.061H330.608C330.106 210.061 329.353 210.025 328.314 209.954C327.31 209.882 326.629 209.309 325.948 208.986C325.339 208.699 324.443 207.947 324.228 206.728L323.188 200.061L318.421 206.62C316.916 208.699 314.837 210.276 311.361 210.276H304.658L306.414 204.47H308.995C309.748 204.47 310.393 204.183 310.859 203.932C311.361 203.717 311.791 203.466 312.293 202.75L319.246 192.929L319.282 192.965Z" fill="white"/>
<path d="M218.313 178.447H242.721L240.929 184.289H231.18L229.675 189.236H239.674L237.847 195.257H227.883L225.481 203.321C225.194 204.218 227.847 204.325 228.814 204.325L233.832 203.644L231.825 210.311H220.571C219.675 210.311 218.994 210.167 218.026 209.952C217.094 209.701 216.664 209.307 216.234 208.662C215.84 208.017 215.195 207.479 215.625 206.045L218.85 195.365H213.295L215.123 189.236H220.714L222.184 184.289H216.628L218.42 178.447H218.313Z" fill="white"/>
<path d="M234.77 167.988H244.769L242.941 174.081H229.25L227.78 175.372C227.135 175.981 226.92 175.73 226.096 176.196C225.307 176.59 223.694 177.343 221.58 177.343H217.207L218.999 171.465H220.325C221.436 171.465 222.189 171.357 222.583 171.107C223.013 170.82 223.515 170.21 224.053 169.207L226.562 164.619H236.526L234.77 167.952V167.988Z" fill="white"/>
<path fill-rule="evenodd" clip-rule="evenodd" d="M253.979 178.027C253.979 178.027 256.703 175.518 261.398 174.73C262.474 174.515 269.104 174.586 269.104 174.586L270.108 171.253H256.022L253.979 178.027ZM267.205 180.572H253.227L252.366 183.403H264.481C265.914 183.224 266.201 183.403 266.309 183.368L267.205 180.572ZM249.105 164.766H257.635L256.381 169.067C256.381 169.067 259.069 166.916 260.968 166.163C262.832 165.447 267.097 164.837 267.097 164.837L280.896 164.766L276.201 180.428C275.413 183.117 274.481 184.837 273.907 185.626C273.37 186.45 272.76 187.095 271.578 187.776C270.431 188.385 269.355 188.744 268.388 188.851C267.456 188.923 266.058 188.959 264.122 188.959H250.825L247.062 201.36C246.703 202.579 246.524 203.152 246.775 203.511C246.99 203.797 247.42 204.156 248.065 204.156L253.907 203.618L251.9 210.428H245.341C243.262 210.428 241.721 210.392 240.682 210.285C239.678 210.213 238.603 210.285 237.922 209.747C237.313 209.209 236.381 208.493 236.381 207.776C236.453 207.095 236.703 205.984 237.169 204.442L249.105 164.801V164.766Z" fill="white"/>
<path d="M273.942 190.026L273.153 193.789C272.795 194.972 272.508 195.868 271.612 196.621C270.68 197.409 269.569 198.234 267.024 198.234L262.293 198.413V202.678C262.185 203.897 262.508 203.753 262.723 203.969C262.938 204.184 263.117 204.255 263.332 204.327L264.838 204.255L269.354 204.004L267.49 210.205H262.293C258.673 210.205 255.949 210.133 255.089 209.416C254.229 208.879 254.121 208.162 254.121 206.979L254.444 190.384H262.723L262.616 193.754H264.623C265.304 193.754 265.734 193.682 266.056 193.503C266.307 193.288 266.487 193.037 266.63 192.643L267.418 189.99H273.942V190.026Z" fill="white"/>
<path d="M155.74 106.904C155.454 108.23 150.113 132.782 150.113 132.782C148.966 137.728 148.142 141.312 145.31 143.57C143.698 144.897 141.834 145.542 139.648 145.542C136.171 145.542 134.128 143.821 133.769 140.524L133.698 139.413L134.773 132.746C134.773 132.746 140.364 110.381 141.332 107.442L141.404 107.119C130.544 107.227 128.608 107.119 128.501 106.976C128.429 107.191 128.142 108.589 128.142 108.589L122.443 133.75L121.942 135.9L121.01 142.889C121.01 144.968 121.404 146.653 122.228 148.087C124.845 152.638 132.228 153.319 136.422 153.319C141.834 153.319 146.888 152.172 150.293 150.094C156.242 146.581 157.783 141.097 159.181 136.223L159.826 133.714C159.826 133.714 165.561 110.488 166.565 107.478C166.565 107.299 166.601 107.227 166.636 107.155C158.751 107.227 156.457 107.155 155.705 107.012" fill="white"/>
<path d="M187.532 152.969C183.661 152.933 182.335 152.933 177.819 153.148L177.639 152.826C178.034 151.105 178.464 149.421 178.858 147.7L179.396 145.371C180.22 141.715 181.044 137.486 181.152 136.195C181.224 135.407 181.474 133.471 179.288 133.471C178.356 133.471 177.388 133.937 176.385 134.367C175.847 136.303 174.736 141.751 174.234 144.26C173.123 149.493 173.052 150.102 172.55 152.682L172.227 153.005C168.249 152.969 166.887 152.969 162.299 153.184L162.084 152.79C162.837 149.672 163.625 146.553 164.342 143.435C166.242 135.012 166.708 131.787 167.245 127.486L167.604 127.235C172.048 126.625 173.123 126.482 177.962 125.479L178.356 125.944L177.639 128.633C178.464 128.167 179.216 127.665 180.077 127.235C182.335 126.124 184.879 125.801 186.277 125.801C188.392 125.801 190.686 126.41 191.653 128.848C192.585 131.034 191.976 133.722 190.757 138.991L190.148 141.679C188.894 147.557 188.714 148.632 188.033 152.682L187.568 153.005L187.532 152.969Z" fill="white"/>
<path d="M203.155 152.957C200.826 152.957 199.356 152.921 197.887 152.957C196.453 152.957 195.019 153.029 192.869 153.136L192.725 152.957L192.582 152.778C193.155 150.556 193.514 149.767 193.801 148.979C194.087 148.19 194.374 147.402 194.876 145.144C195.557 142.205 195.951 140.126 196.274 138.334C196.596 136.577 196.74 135.108 196.991 133.387L197.17 133.244L197.349 133.065C199.643 132.742 201.112 132.527 202.618 132.276C204.123 132.061 205.664 131.775 208.03 131.309L208.137 131.524L208.209 131.739C207.779 133.567 207.313 135.395 206.883 137.258C206.453 139.122 206.023 140.914 205.593 142.742C204.732 146.613 204.374 148.083 204.159 149.086C203.98 150.09 203.908 150.627 203.55 152.634L203.335 152.814L203.12 152.957H203.155Z" fill="white"/>
<path d="M227.706 139.28C227.491 140.284 226.631 144.012 225.448 145.589C224.624 146.736 223.656 147.452 222.545 147.452C222.223 147.452 220.323 147.452 220.287 144.621C220.287 143.223 220.538 141.789 220.896 140.248C221.9 135.768 223.119 132.005 226.165 132.005C228.567 132.005 228.71 134.8 227.706 139.316M237.778 139.746C239.14 133.832 238.101 131.037 236.774 129.352C234.767 126.807 231.219 125.947 227.527 125.947C225.305 125.947 220.072 126.162 215.95 129.962C213.011 132.686 211.613 136.413 210.789 139.961C209.965 143.581 208.997 150.14 215.018 152.542C216.882 153.33 219.534 153.545 221.255 153.545C225.663 153.545 230.179 152.327 233.549 148.743C236.165 145.839 237.384 141.503 237.778 139.711" fill="white"/>
<path d="M331.931 153.379C327.271 153.343 325.945 153.343 321.644 153.522L321.357 153.164C322.54 148.755 323.723 144.347 324.727 139.867C326.089 134.06 326.375 131.623 326.841 128.218L327.2 127.931C331.823 127.286 333.078 127.071 337.916 126.211L338.06 126.605C337.164 130.225 336.303 133.881 335.443 137.537C333.687 145.171 333.042 149.078 332.361 153.056L331.931 153.379V153.379Z" fill="white"/>
<path d="M324.942 139.778C324.727 140.71 323.831 144.473 322.648 146.05C321.86 147.161 319.996 147.878 318.92 147.878C318.598 147.878 316.734 147.878 316.662 145.082C316.662 143.72 316.949 142.251 317.308 140.71C318.311 136.301 319.53 132.574 322.576 132.574C324.978 132.574 326.017 135.298 324.978 139.814M334.153 140.244C335.515 134.366 330.067 139.742 329.207 137.771C327.881 134.724 328.705 128.595 323.365 126.516C321.322 125.728 316.483 126.767 312.361 130.531C309.422 133.255 308.06 136.91 307.236 140.459C306.412 144.043 305.444 150.566 311.43 152.896C313.329 153.684 315.05 153.935 316.77 153.864C322.791 153.541 327.343 144.473 330.748 140.889C333.365 138.057 333.831 141.964 334.225 140.244" fill="white"/>
<path d="M264.084 152.969C260.213 152.933 258.923 152.933 254.371 153.148L254.192 152.826C254.586 151.105 255.016 149.421 255.411 147.7L255.948 145.371C256.773 141.715 257.597 137.486 257.705 136.195C257.776 135.407 258.027 133.471 255.841 133.471C254.873 133.471 253.941 133.937 252.938 134.367C252.4 136.303 251.289 141.751 250.751 144.26C249.64 149.493 249.568 150.102 249.067 152.682L248.744 153.005C244.766 152.969 243.404 152.969 238.852 153.184L238.637 152.79C239.389 149.672 240.142 146.553 240.859 143.435C242.759 135.012 243.224 131.787 243.762 127.486L244.121 127.235C248.565 126.625 249.64 126.482 254.479 125.479L254.873 125.944L254.192 128.633C254.981 128.167 255.805 127.665 256.593 127.235C258.851 126.124 261.396 125.801 262.758 125.801C264.873 125.801 267.167 126.41 268.17 128.848C269.066 131.034 268.457 133.722 267.238 138.991L266.629 141.679C265.375 147.557 265.16 148.632 264.514 152.682L264.049 153.005L264.084 152.969Z" fill="white"/>
<path d="M297.449 106.829L294.259 106.865C285.943 106.973 282.61 106.901 281.212 106.758C281.069 107.367 280.854 108.442 280.854 108.442L277.879 122.277C277.879 122.277 270.746 151.668 270.424 153.065C277.7 152.994 280.675 152.994 281.929 153.101C282.216 151.703 283.9 143.496 283.9 143.496C283.9 143.496 285.334 137.474 285.442 137.259C285.442 137.259 285.872 136.65 286.338 136.399H286.983C293.255 136.399 300.352 136.399 305.871 132.313C309.635 129.517 312.251 125.396 313.362 120.378C313.685 119.159 313.9 117.654 313.9 116.22C313.9 114.285 313.506 112.385 312.395 110.915C309.563 106.937 303.936 106.901 297.413 106.865M301.57 121.274C300.889 124.32 298.918 126.937 296.337 128.155C294.223 129.231 291.642 129.302 288.99 129.302H287.269L287.413 128.621C287.413 128.621 290.603 114.822 290.567 114.858L290.674 114.141L290.746 113.604L292.001 113.747C292.001 113.747 298.524 114.32 298.703 114.32C301.284 115.288 302.359 117.905 301.606 121.274" fill="white"/>
<path d="M369.995 126.166L369.637 125.771C364.906 126.703 364.009 126.883 359.637 127.456L359.314 127.779C359.314 127.779 359.314 127.922 359.278 127.994V127.922C356.017 135.449 356.088 133.8 353.436 139.714C353.436 139.427 353.436 139.248 353.436 138.997L352.791 126.202L352.361 125.807C347.379 126.739 347.271 126.918 342.648 127.492L342.289 127.814C342.289 127.814 342.254 128.137 342.218 128.316V128.388C342.827 131.327 342.684 130.682 343.257 135.305C343.544 137.563 343.866 139.893 344.153 142.115C344.619 145.879 344.87 147.743 345.408 153.477C342.325 158.603 341.573 160.574 338.598 165.054L338.741 165.448C343.221 165.269 344.261 165.269 347.594 165.269L348.311 164.445C350.82 159.033 369.959 126.166 369.959 126.166" fill="white"/>
<path d="M207.382 129.337C209.927 127.581 210.249 125.108 208.099 123.854C205.913 122.563 202.113 122.993 199.569 124.75C196.988 126.506 196.701 128.943 198.852 130.233C201.002 131.488 204.801 131.129 207.382 129.337" fill="white"/>
<path d="M347.994 164.86L344.267 171.276C343.084 173.462 340.898 175.111 337.385 175.111L331.436 175.003L333.156 169.233H334.303C334.912 169.233 335.378 169.197 335.701 169.018C335.987 168.91 336.203 168.695 336.453 168.337L338.64 164.824H347.959L347.994 164.86Z" fill="white"/>
<rect x="7.49999" y="7.49999" width="465" height="292.95" rx="16.4961" stroke="black" stroke-opacity="0.15" stroke-width="15"/>
</svg>
