<svg width="480" height="308" viewBox="0 0 480 308" fill="none" xmlns="http://www.w3.org/2000/svg">
<rect width="480" height="307.95" rx="23.9961" fill="#333333"/>
<path d="M178.16 274.294V258.203C178.254 256.85 178.059 255.492 177.587 254.22C177.115 252.948 176.378 251.791 175.423 250.827C174.469 249.862 173.32 249.112 172.054 248.627C170.787 248.142 169.431 247.932 168.077 248.012C166.304 247.897 164.533 248.259 162.948 249.061C161.364 249.863 160.023 251.075 159.066 252.571C158.194 251.12 156.946 249.93 155.455 249.127C153.963 248.325 152.283 247.94 150.591 248.012C149.116 247.938 147.648 248.25 146.331 248.918C145.014 249.586 143.894 250.587 143.082 251.82V248.656H137.504V274.294H143.136V260.08C143.014 259.203 143.088 258.31 143.352 257.465C143.617 256.62 144.065 255.844 144.665 255.193C145.265 254.542 146.002 254.031 146.822 253.699C147.643 253.366 148.527 253.219 149.411 253.269C153.112 253.269 154.99 255.682 154.99 260.027V274.294H160.621V260.08C160.509 259.205 160.589 258.316 160.857 257.475C161.125 256.633 161.573 255.861 162.171 255.212C162.77 254.563 163.502 254.053 164.319 253.717C165.135 253.381 166.015 253.228 166.897 253.269C170.705 253.269 172.528 255.682 172.528 260.027V274.294H178.16ZM209.591 261.475V248.656H204.013V251.767C203.06 250.54 201.828 249.559 200.419 248.905C199.01 248.252 197.465 247.946 195.913 248.012C192.457 248.182 189.198 249.674 186.812 252.18C184.426 254.686 183.095 258.014 183.095 261.475C183.095 264.936 184.426 268.264 186.812 270.77C189.198 273.276 192.457 274.768 195.913 274.938C197.465 275.004 199.01 274.698 200.419 274.045C201.828 273.391 203.06 272.41 204.013 271.183V274.294H209.591V261.475ZM188.834 261.475C188.921 259.962 189.448 258.507 190.351 257.291C191.255 256.074 192.494 255.148 193.917 254.628C195.34 254.107 196.885 254.014 198.36 254.361C199.835 254.708 201.176 255.478 202.219 256.578C203.261 257.678 203.959 259.059 204.226 260.551C204.493 262.042 204.317 263.58 203.721 264.973C203.125 266.366 202.134 267.554 200.87 268.39C199.607 269.227 198.126 269.676 196.611 269.681C195.549 269.695 194.495 269.489 193.517 269.076C192.538 268.663 191.656 268.052 190.925 267.281C190.194 266.51 189.631 265.596 189.271 264.597C188.912 263.597 188.763 262.534 188.834 261.475ZM328.95 247.982C330.834 247.964 332.703 248.314 334.452 249.013C336.082 249.664 337.569 250.628 338.828 251.851C340.068 253.067 341.051 254.518 341.72 256.121C343.113 259.554 343.113 263.395 341.72 266.829C341.051 268.431 340.068 269.884 338.828 271.1C337.569 272.323 336.082 273.286 334.452 273.937C330.913 275.312 326.987 275.312 323.448 273.937C321.821 273.288 320.337 272.324 319.084 271.1C317.852 269.88 316.874 268.429 316.206 266.829C314.815 263.395 314.815 259.554 316.206 256.121C316.874 254.521 317.852 253.07 319.084 251.851C320.338 250.626 321.821 249.662 323.448 249.013C325.197 248.314 327.066 247.964 328.95 247.982V247.982ZM328.95 253.256C327.859 253.247 326.777 253.451 325.765 253.859C324.811 254.242 323.945 254.815 323.221 255.545C322.492 256.29 321.919 257.173 321.534 258.142C320.713 260.288 320.713 262.662 321.534 264.808C321.919 265.777 322.492 266.66 323.221 267.405C323.945 268.135 324.811 268.709 325.765 269.092C327.812 269.895 330.088 269.895 332.135 269.092C333.092 268.707 333.962 268.133 334.692 267.405C335.428 266.663 336.006 265.779 336.393 264.808C337.214 262.662 337.214 260.288 336.393 258.142C336.006 257.171 335.428 256.288 334.692 255.545C333.962 254.817 333.092 254.244 332.135 253.859C331.123 253.451 330.041 253.247 328.95 253.256V253.256ZM239.944 261.475C239.891 253.483 234.956 248.012 227.769 248.012C224.29 248.195 221.017 249.718 218.636 252.261C216.256 254.805 214.953 258.172 215.002 261.655C215.051 265.139 216.447 268.468 218.897 270.945C221.347 273.421 224.661 274.852 228.144 274.938C231.971 275.072 235.713 273.793 238.657 271.344L235.921 267.214C233.803 268.911 231.18 269.855 228.466 269.896C226.623 270.051 224.792 269.482 223.36 268.311C221.928 267.14 221.009 265.458 220.796 263.62H239.837C239.891 262.923 239.944 262.226 239.944 261.475ZM220.85 259.222C220.948 257.501 221.715 255.886 222.988 254.724C224.261 253.561 225.938 252.943 227.661 253C229.346 252.968 230.975 253.604 232.192 254.77C233.408 255.936 234.113 257.537 234.152 259.222H220.85ZM263.435 255.2C261.002 253.8 258.251 253.043 255.444 253C252.386 253 250.563 254.127 250.563 256.004C250.563 257.721 252.494 258.203 254.908 258.525L257.536 258.9C263.114 259.705 266.493 262.065 266.493 266.57C266.493 271.451 262.202 274.938 254.8 274.938C250.839 275.047 246.946 273.881 243.698 271.612L246.326 267.268C248.787 269.093 251.791 270.037 254.854 269.95C258.662 269.95 260.7 268.823 260.7 266.838C260.7 265.39 259.252 264.586 256.195 264.157L253.566 263.782C247.828 262.977 244.717 260.402 244.717 256.218C244.717 251.123 248.9 248.012 255.39 248.012C259.062 247.886 262.692 248.817 265.849 250.694L263.435 255.2ZM290.239 253.751H281.121V265.337C281.121 267.911 282.033 269.628 284.822 269.628C286.563 269.57 288.26 269.072 289.756 268.18L291.365 272.953C289.274 274.257 286.857 274.945 284.393 274.938C277.796 274.938 275.489 271.398 275.489 265.444V253.751H270.286V248.656H275.489L275.488 240.879H281.119L281.121 248.656H290.239V253.751ZM309.543 248.012C310.897 248.018 312.239 248.253 313.513 248.71L311.796 253.966C310.688 253.525 309.503 253.306 308.31 253.322C304.663 253.322 302.839 255.682 302.839 259.919V274.294H297.261V248.656H302.786V251.767C303.47 250.591 304.459 249.621 305.649 248.96C306.838 248.3 308.183 247.972 309.543 248.012V248.012ZM348.161 270.562C348.508 270.56 348.852 270.628 349.172 270.762C349.479 270.891 349.759 271.076 349.997 271.309C350.233 271.542 350.422 271.818 350.554 272.122C350.688 272.435 350.757 272.772 350.757 273.112C350.757 273.452 350.688 273.789 350.554 274.102C350.421 274.405 350.233 274.68 349.997 274.912C349.759 275.145 349.479 275.331 349.172 275.462C348.853 275.598 348.509 275.668 348.161 275.665C347.65 275.67 347.149 275.525 346.721 275.247C346.292 274.969 345.954 274.57 345.751 274.102C345.617 273.789 345.548 273.452 345.548 273.112C345.548 272.772 345.617 272.435 345.751 272.122C345.882 271.818 346.07 271.542 346.305 271.309C346.542 271.074 346.824 270.889 347.133 270.762C347.459 270.627 347.809 270.559 348.161 270.562V270.562ZM348.161 275.102C348.426 275.104 348.688 275.051 348.931 274.946C349.164 274.845 349.376 274.7 349.556 274.521C349.786 274.291 349.957 274.008 350.053 273.697C350.148 273.386 350.166 273.056 350.104 272.737C350.042 272.417 349.903 272.117 349.699 271.864C349.494 271.611 349.231 271.412 348.931 271.285C348.688 271.181 348.426 271.129 348.161 271.131C347.892 271.129 347.625 271.181 347.377 271.285C347.14 271.382 346.924 271.525 346.742 271.706C346.371 272.08 346.163 272.586 346.163 273.113C346.163 273.641 346.371 274.146 346.742 274.521C346.929 274.706 347.15 274.853 347.394 274.953C347.637 275.053 347.898 275.104 348.161 275.102V275.102ZM348.312 271.919C348.563 271.902 348.812 271.974 349.016 272.122C349.097 272.189 349.161 272.274 349.204 272.37C349.247 272.466 349.267 272.571 349.262 272.676C349.265 272.766 349.249 272.855 349.215 272.939C349.181 273.022 349.13 273.098 349.065 273.16C348.91 273.298 348.713 273.381 348.505 273.395L349.281 274.289H348.675L347.955 273.401H347.724V274.289H347.217V271.919H348.312ZM347.724 272.363V272.995H348.306C348.417 273 348.528 272.973 348.625 272.916C348.664 272.89 348.695 272.854 348.716 272.812C348.737 272.77 348.746 272.723 348.743 272.676C348.746 272.63 348.736 272.584 348.715 272.542C348.695 272.501 348.663 272.466 348.625 272.441C348.528 272.385 348.417 272.358 348.306 272.363H347.724Z" fill="white"/>
<path d="M282.294 52.9688H197.695V204.995H282.294V52.9688Z" fill="#7375CF"/>
<path d="M203.073 128.97C203.06 114.328 206.378 99.8761 212.776 86.7066C219.173 73.5371 228.484 61.9958 240.001 52.9563C225.738 41.7453 208.609 34.7734 190.571 32.8373C172.533 30.9013 154.314 34.0793 137.997 42.0081C121.68 49.937 107.922 62.2966 98.2974 77.6746C88.6725 93.0525 83.5684 110.828 83.5684 128.97C83.5684 147.111 88.6725 164.887 98.2974 180.265C107.922 195.643 121.68 208.002 137.997 215.931C154.314 223.86 172.533 227.038 190.571 225.102C208.609 223.166 225.738 216.194 240.001 204.983C228.484 195.944 219.173 184.402 212.776 171.233C206.378 158.063 203.06 143.611 203.073 128.97V128.97Z" fill="#EB001B"/>
<path d="M387.209 188.88V185.767H388.464V185.133H385.268V185.767H386.523V188.88H387.209ZM393.414 188.88V185.127H392.434L391.307 187.708L390.18 185.127H389.2V188.88H389.892V186.049L390.949 188.489H391.666L392.723 186.043V188.88H393.414Z" fill="#00A2E5"/>
<path d="M396.428 128.97C396.429 147.111 391.325 164.887 381.701 180.265C372.076 195.642 358.319 208.002 342.003 215.931C325.686 223.86 307.467 227.038 289.429 225.102C271.392 223.166 254.263 216.194 240 204.983C251.507 195.935 260.81 184.391 267.207 171.224C273.604 158.056 276.928 143.609 276.928 128.97C276.928 114.331 273.604 99.8829 267.207 86.7155C260.81 73.5481 251.507 62.0049 240 52.9563C254.263 41.7453 271.392 34.7733 289.429 32.8373C307.467 30.9013 325.686 34.0794 342.003 42.0083C358.319 49.9372 372.076 62.297 381.701 77.6749C391.325 93.0528 396.429 110.828 396.428 128.97V128.97Z" fill="#00A2E5"/>
</svg>
