<svg width="480" height="308" viewBox="0 0 480 308" fill="none" xmlns="http://www.w3.org/2000/svg">
<g clip-path="url(#clip0_63693_488518)">
<rect width="480" height="307.95" rx="24" fill="#006FCF"/>
<path d="M479.996 307.613H327.273H172.705V152.444V0.322266H325.214H479.996V153.956V307.613Z" fill="white"/>
<path d="M479.996 307.613V258.92H442.925L423.836 237.815L404.655 258.92H282.426V160.556H242.976L291.909 49.8146H339.103L355.949 87.7527V49.8146H414.365L424.506 78.405L434.714 49.8146H479.996V0.322266H172.705V307.613H479.996ZM449.169 246.604H479.996L439.219 203.362L479.996 160.611H449.66L424.475 188.132L399.535 160.611H368.702L409.239 203.608L368.702 246.604H398.681L423.989 218.837L449.175 246.604H449.169ZM456.378 203.399L479.99 228.523V178.484L456.378 203.399ZM318.939 226.704V213.312H367.466V193.903H318.939V180.512H368.695V160.611H295.474V246.61H368.695V226.71H318.939V226.704ZM456.771 148.129H479.99V62.1308H443.871L424.579 115.692L405.417 62.1308H368.683V148.129H391.902V87.931L414.015 148.129H434.652L456.765 87.8081V148.129H456.771ZM342.274 148.129H368.689L330.726 62.1308H300.501L262.539 148.129H288.339L295.468 130.927H335.029L342.274 148.129ZM326.916 111.642H303.574L315.245 83.506L326.916 111.642V111.642Z" fill="#006FCF"/>
</g>
<defs>
<clipPath id="clip0_63693_488518">
<rect width="480" height="307.95" rx="24" fill="white"/>
</clipPath>
</defs>
</svg>
