<svg width="480" height="308" viewBox="0 0 480 308" fill="none" xmlns="http://www.w3.org/2000/svg">
<rect width="480" height="307.95" rx="24" fill="#004C97"/>
<path d="M261.471 253.964C315.638 254.225 365.08 209.381 365.08 154.83C365.08 95.1792 315.638 53.9426 261.471 53.9649H214.851C160.038 53.9426 114.916 95.1903 114.916 154.83C114.916 209.393 160.038 254.225 214.851 253.964H261.471Z" fill="white"/>
<path d="M215.074 62.2559C164.981 62.2726 124.396 103.242 124.379 153.808C124.396 204.369 164.981 245.338 215.074 245.355C265.172 245.338 305.774 204.369 305.78 153.808C305.774 103.242 265.178 62.2726 215.074 62.2559ZM157.589 153.808C157.578 142.117 161.095 130.694 167.679 121.033C174.263 111.372 183.609 103.922 194.495 99.6572V207.953C183.608 203.691 174.261 196.243 167.677 186.582C161.092 176.922 157.576 165.499 157.589 153.808V153.808ZM235.648 207.976V99.6516C246.541 103.911 255.895 111.36 262.484 121.024C269.073 130.688 272.591 142.117 272.576 153.814C272.588 165.51 269.07 176.937 262.481 186.601C255.892 196.265 246.54 203.715 235.648 207.976V207.976Z" fill="#004C97"/>
<path d="M261.471 253.964C315.638 254.225 365.08 209.381 365.08 154.83C365.08 95.1792 315.638 53.9426 261.471 53.9649H214.851C160.038 53.9426 114.916 95.1903 114.916 154.83C114.916 209.393 160.038 254.225 214.851 253.964H261.471Z" fill="white"/>
<path d="M215.074 62.2559C164.981 62.2726 124.396 103.242 124.379 153.808C124.396 204.369 164.981 245.338 215.074 245.355C265.172 245.338 305.774 204.369 305.78 153.808C305.774 103.242 265.178 62.2726 215.074 62.2559ZM157.589 153.808C157.578 142.117 161.095 130.694 167.679 121.033C174.263 111.372 183.609 103.922 194.495 99.6572V207.953C183.608 203.691 174.261 196.243 167.677 186.582C161.092 176.922 157.576 165.499 157.589 153.808V153.808ZM235.648 207.976V99.6516C246.541 103.911 255.895 111.36 262.484 121.024C269.073 130.688 272.591 142.117 272.576 153.814C272.588 165.51 269.07 176.937 262.481 186.601C255.892 196.265 246.54 203.715 235.648 207.976V207.976Z" fill="#004C97"/>
</svg>
