<svg width="24" height="25" viewBox="0 0 24 25" fill="none" xmlns="http://www.w3.org/2000/svg">
<g clip-path="url(#clip0_280_1722)">
<path fill-rule="evenodd" clip-rule="evenodd" d="M12 0.500006C9.14837 0.497034 6.38889 1.53557 4.21609 3.42951C2.0433 5.32345 0.599217 7.94899 0.142633 10.8356C-0.31395 13.7222 0.246812 16.6813 1.72443 19.1824C3.20204 21.6836 5.49992 23.5634 8.20628 24.4849C8.81033 24.5982 9.02396 24.2129 9.02396 23.8881C9.02396 23.5633 9.02396 22.823 9.02396 21.7956C5.67221 22.5434 4.96502 20.1412 4.96502 20.1412C4.74267 19.3966 4.27028 18.757 3.63169 18.3357C2.54882 17.5803 3.72009 17.5803 3.72009 17.5803C4.09968 17.6353 4.4621 17.7781 4.77989 17.998C5.09768 18.2179 5.36252 18.509 5.55434 18.8494C5.71733 19.1525 5.93708 19.4196 6.20097 19.6353C6.46487 19.8511 6.76771 20.0113 7.09213 20.1068C7.41654 20.2022 7.75615 20.231 8.09145 20.1916C8.42676 20.1521 8.75116 20.0451 9.04605 19.8768C9.09229 19.2553 9.35354 18.6713 9.7827 18.2299C7.11604 17.9202 4.31677 16.8626 4.31677 12.1865C4.29846 10.965 4.73893 9.78298 5.54698 8.88528C5.18709 7.82316 5.22915 6.6612 5.66484 5.62937C5.66484 5.62937 6.67405 5.29699 8.96502 6.89094C10.9323 6.33703 13.0088 6.33703 14.9761 6.89094C17.267 5.29699 18.2689 5.62937 18.2689 5.62937C18.7106 6.65028 18.7632 7.80391 18.4162 8.86261C19.2243 9.76031 19.6647 10.9423 19.6464 12.1638C19.6464 16.8928 16.8398 17.9278 14.1658 18.2073C14.4525 18.5029 14.6739 18.8582 14.815 19.2492C14.9561 19.6402 15.0135 20.0578 14.9834 20.4736C14.9834 22.1204 14.9834 23.45 14.9834 23.8503C14.9834 24.2507 15.1971 24.5604 15.8085 24.4396C18.484 23.4937 20.7475 21.6086 22.199 19.1172C23.6505 16.6258 24.1967 13.6884 23.741 10.8241C23.2853 7.95973 21.8571 5.35271 19.7087 3.46358C17.5603 1.57445 14.83 0.524776 12 0.500006Z" fill="#0C0C0C"/>
</g>
<defs>
<clipPath id="clip0_280_1722">
<rect width="24" height="24" fill="white" transform="translate(0 0.5)"/>
</clipPath>
</defs>
</svg>
