<svg width="24" height="24" viewBox="0 0 24 24" fill="none" xmlns="http://www.w3.org/2000/svg"><path d="m8.7509 19.3529 1.5885-1.589 2.0605 1.35v-3.41l2.2-2.2v9.6815l-5.849-3.8325ZM.858398 21.5864l3.235502-3.236H.899898V5.65043H7.2199l7.38-4.835v7.029l6.986-6.9855 1.5555 1.5555L2.4139 23.1419.858398 21.5864Zm17.717502-2.868.0705-.071c1.7755-1.776 2.7535-4.136 2.7535-6.647 0-1.47-.3355-2.88397-.9965-4.20297l-.032-.0645 1.6175-1.6175.065.113c1.0115 1.7555 1.546 3.7515 1.546 5.77197 0 3.0985-1.2065 6.011-3.3975 8.2025l-.071.0705-1.5555-1.555Zm-2.8285-2.829.0705-.071c1.02-1.02 1.5815-2.376 1.5815-3.8185 0-.368-.0395-.743-.117-1.1155l-.011-.053 1.7465-1.74697.0555.142c.349.89097.526 1.82397.526 2.77347 0 2.03-.7905 3.939-2.226 5.374l-.071.0705-1.5555-1.5555.0005.0005Z" fill="#000"/></svg>