<svg xmlns="http://www.w3.org/2000/svg" width="24" height="24" fill="none"><path fill="#1A1A1A" d="M12 1C5.9 1 1 5.9 1 12s4.9 11 11 11 11-4.9 11-11S18.1 1 12 1M7.5 8.75c0-.15.1-.25.25-.25h2c.15 0 .25.1.25.25v2c0 .15-.1.25-.25.25h-2c-.15 0-.25-.1-.25-.25zm8.95 6.6c-1.15 1.25-2.75 2-4.45 2s-3.3-.7-4.45-2c-.1-.1-.1-.25.05-.35l1.55-1.25c.1-.1.25-.05.35.05.65.7 1.55 1.1 2.5 1.1s1.85-.4 2.5-1.1c.1-.1.25-.1.35-.05L16.4 15c.1.05.15.25.05.35m.05-4.6c0 .15-.1.25-.25.25h-2c-.15 0-.25-.1-.25-.25v-2c0-.15.1-.25.25-.25h2c.15 0 .25.1.25.25z"/></svg>