<svg xmlns="http://www.w3.org/2000/svg" width="24" height="24" fill="none"><path fill="#1A1A1A" d="M12 18a1.5 1.5 0 1 0 0-3 1.5 1.5 0 0 0 0 3m-.9-6.2c.15-.45.4-.8.75-1.1s.65-.55.8-.8c.2-.25.25-.5.25-.75 0-.35-.05-.6-.2-.75s-.35-.25-.65-.25c-.25 0-.45.1-.65.3-.15.2-.25.45-.25.8 0 .05-.05.1-.1.1H8.6c-.05 0-.1-.05-.1-.1.05-1.1.35-1.9 1-2.4.65-.55 1.5-.8 2.55-.8q1.65 0 2.55.75t.9 2.25c0 .35-.05.7-.2.95q-.15.375-.45.75c-.2.2-.45.5-.8.8l-.3.25c-.3.25-.45.5-.6.75-.1.25-.15.5-.15.9 0 .05-.05.1-.1.1h-2c-.05 0-.1-.05-.1-.1.1-.7.2-1.2.3-1.65"/><path fill="#1A1A1A" d="M12 3.5c4.95 0 8.9 4.2 8.45 9.25-.1 1.45-.65 2.8-1.45 4.05-.1.15-.15.3-.15.5L19 19l-1.75-.1c-.15 0-.35.05-.5.15-1.2.8-2.6 1.3-4.05 1.45-5 .4-9.2-3.55-9.2-8.5 0-4.7 3.8-8.5 8.5-8.5M12 1C5.5 1 .35 6.6 1.05 13.25c.55 5.05 4.65 9.15 9.7 9.7 2.6.3 5.05-.35 7.05-1.6.1-.05.2-.1.3-.05l3.1.25c.15 0 .25-.1.25-.25l-.25-3.15c0-.1 0-.2.05-.3C22.4 16.15 23 14.15 23 12c0-6.1-4.9-11-11-11"/></svg>