<svg xmlns="http://www.w3.org/2000/svg" width="24" height="24" fill="none"><path fill="#0C0C0C" d="M17.968 14.086a.2.2 0 0 0 0-.283L12.14 7.976a.2.2 0 0 0-.283 0L6.03 13.803a.2.2 0 0 0 0 .283l1.173 1.172a.2.2 0 0 0 .282 0L12 10.747l4.513 4.512a.2.2 0 0 0 .283 0z"/><path fill="#0C0C0C" fill-rule="evenodd" d="M12 .9C5.87.9.9 5.87.9 12S5.87 23.1 12 23.1 23.1 18.13 23.1 12 18.13.9 12 .9m0 20c-4.907 0-8.9-3.993-8.9-8.9 0-4.908 3.993-8.9 8.9-8.9 4.908 0 8.9 3.993 8.9 8.9 0 4.908-3.992 8.9-8.9 8.9" clip-rule="evenodd"/></svg>