<svg xmlns="http://www.w3.org/2000/svg" width="24" height="24" fill="none"><path fill="#0C0C0C" d="M5.277 2.748c.2.983 1.468 2.413 2.23 2.7.13.05.243.164.243.302s-.114.253-.243.301c-.762.288-2.03 1.718-2.23 2.701C5.249 8.888 5.138 9 5 9s-.25-.112-.277-.248c-.2-.983-1.468-2.413-2.23-2.7-.13-.05-.243-.164-.243-.302s.114-.253.243-.301c.762-.288 2.03-1.718 2.23-2.701.028-.136.139-.248.277-.248s.25.112.277.248M5.261 14.75c.165 1.86 2.125 3.54 3.49 3.732.137.019.249.13.249.268s-.112.249-.249.268c-1.365.192-3.325 1.872-3.49 3.732A.27.27 0 0 1 5 23a.27.27 0 0 1-.261-.25c-.165-1.86-2.125-3.54-3.49-3.732C1.112 19 1 18.888 1 18.75s.112-.249.249-.268c1.365-.192 3.325-1.872 3.49-3.732A.27.27 0 0 1 5 14.5c.138 0 .249.112.261.25"/><path fill="#0C0C0C" fill-rule="evenodd" d="M13.865 2.462q-.102.563-.275 1.117c-1.034 3.334-3.848 6.307-6.387 7.31a6 6 0 0 1-.352.127 4.8 4.8 0 0 1-1.102.225.264.264 0 0 0-.249.259v.534c0 .124.09.228.212.252l.112.023q.46.1.947.287.19.073.38.159c2.552 1.139 5.395 3.929 6.438 7.198q.172.536.274 1.086.109.584.132 1.178v.033c.005.138.117.25.255.25h.5c.138 0 .25-.112.254-.25l.001-.033q.023-.595.132-1.178.103-.551.274-1.086c1.043-3.27 3.886-6.059 6.437-7.198q.192-.085.38-.159a6.4 6.4 0 0 1 1.06-.31.26.26 0 0 0 .212-.252V11.5a.264.264 0 0 0-.249-.259l-.166-.015a5 5 0 0 1-.936-.21 6 6 0 0 1-.352-.127c-2.539-1.003-5.353-3.976-6.387-7.31a10 10 0 0 1-.275-1.117 8 8 0 0 1-.13-1.212.256.256 0 0 0-.255-.25h-.5a.256.256 0 0 0-.254.25l-.001.033a8 8 0 0 1-.13 1.18M14.5 5.99a15 15 0 0 0 2.111 3.145c.923 1.057 2.027 2.02 3.206 2.72a14.8 14.8 0 0 0-3.166 2.652c-.815.9-1.565 1.943-2.151 3.089a14.4 14.4 0 0 0-2.151-3.09 14.8 14.8 0 0 0-3.166-2.65c1.18-.7 2.283-1.664 3.206-2.721A15 15 0 0 0 14.5 5.99" clip-rule="evenodd"/></svg>