<?xml version="1.0" encoding="utf-8"?>
<!-- Generator: Adobe Illustrator 27.5.0, SVG Export Plug-In . SVG Version: 6.00 Build 0)  -->
<svg version="1.1" xmlns="http://www.w3.org/2000/svg" xmlns:xlink="http://www.w3.org/1999/xlink" x="0px" y="0px"
	 viewBox="0 0 24 24" xml:space="preserve">
<path d="M7,22.4c-1,0-1.8-0.8-1.8-1.9v-17c0-1,0.8-1.9,1.8-1.9h10c1,0,1.9,0.8,1.9,1.9v17c0,1-0.8,1.9-1.9,1.9H7z M6.8,20.6h10.3 V3.3H6.8V20.6z M13.5,6.3c0.5,0,0.9-0.4,0.9-0.8S14,4.7,13.5,4.7h-3C10,4.7,9.6,5,9.6,5.5s0.4,0.8,0.9,0.8H13.5z"/>
</svg>
