<svg width="24" height="24" fill="none" xmlns="http://www.w3.org/2000/svg"><path d="M20.4 3.65v5.5h-5.5v-5.5h5.5ZM21.7 2h-8.2c-.15 0-.25.1-.25.25v8.25c0 .15.1.25.25.25h8.25c.15 0 .25-.1.25-.25V2.3c0-.15-.15-.3-.3-.3Zm-1.3 12.9v5.5h-5.5v-5.5h5.5Zm1.3-1.65h-8.2c-.15 0-.25.1-.25.25v8.25c0 .15.1.25.25.25h8.25c.15 0 .25-.1.25-.25v-8.2c0-.15-.15-.3-.3-.3ZM9.1 14.9v5.5H3.6v-5.5h5.5Zm1.35-1.65h-8.2c-.15 0-.25.1-.25.25v8.25c0 .15.1.25.25.25h8.25c.15 0 .25-.1.25-.25v-8.2c0-.15-.15-.3-.3-.3ZM9.1 3.65v5.5H3.6v-5.5h5.5ZM10.45 2h-8.2C2.1 2 2 2.1 2 2.25v8.25c0 .15.1.25.25.25h8.25c.15 0 .25-.1.25-.25V2.3c0-.15-.15-.3-.3-.3Z" fill="#1A1A1A"/></svg>