<svg xmlns="http://www.w3.org/2000/svg" width="24" height="24" fill="none"><path fill="#1A1A1A" d="M20.25 2H3.75c-.15 0-.25.1-.25.25V21.5c0 .2.25.3.4.2l1.75-1.2 1.95 1.4q.15.075.3 0l1.95-1.4 1.95 1.4q.15.075.3 0l1.95-1.4L16 21.9q.15.075.3 0l1.95-1.4 2 1.25c.15.1.4 0 .4-.2V2.25c-.15-.15-.25-.25-.4-.25M15.5 15c0 .15-.1.25-.25.25h-6.5c-.15 0-.25-.1-.25-.25v-1c0-.15.1-.25.25-.25h6.5c.15 0 .25.1.25.25zm0-3.5c0 .15-.1.25-.25.25h-6.5c-.15 0-.25-.1-.25-.25v-1c0-.15.1-.25.25-.25h6.5c.15 0 .25.1.25.25zm0-3.5c0 .15-.1.25-.25.25h-6.5c-.15 0-.25-.1-.25-.25V7c0-.15.1-.25.25-.25h6.5c.15 0 .25.1.25.25z"/></svg>