<svg xmlns="http://www.w3.org/2000/svg" width="24" height="24" fill="none"><path fill="#0C0C0C" fill-rule="evenodd" d="M23.1 12c0 2.965-1.154 5.752-3.25 7.848A11.03 11.03 0 0 1 12 23.1a11.03 11.03 0 0 1-7.848-3.252A11.03 11.03 0 0 1 .9 12c0-2.965 1.155-5.753 3.252-7.85A11.03 11.03 0 0 1 12 .9c2.965 0 5.752 1.154 7.85 3.25A11.03 11.03 0 0 1 23.1 12m-9.714-5.97a.2.2 0 0 0-.283 0l-5.826 5.828a.2.2 0 0 0 0 .283l5.826 5.829a.2.2 0 0 0 .283 0l1.273-1.273a.2.2 0 0 0 0-.283L10.246 12l4.413-4.414a.2.2 0 0 0 0-.283z" clip-rule="evenodd"/></svg>