<svg xmlns="http://www.w3.org/2000/svg" width="24" height="24" fill="none"><path fill="#0C0C0C" d="M10.5 2.25 9.844 6.9h5.75l.656-4.65h2.25l-.656 4.65h3.906l-.125 2.2h-4.091l-.268 1.9h-2.25l.268-1.9h-5.75l-.818 5.8h2.534v2.2H8.406l-.656 4.65H5.5l.656-4.65H2.25l.125-2.2h4.091l.818-5.8H3.125l.125-2.2h4.344l.656-4.65z"/><path fill="#0C0C0C" fill-rule="evenodd" d="M17.318 12.22c-.097.031-.182.114-.35.28l-1.042 1.02-1.458.015c-.237.003-.356.004-.446.05a.43.43 0 0 0-.186.187c-.047.09-.048.209-.05.446l-.016 1.458-1.02 1.041c-.166.17-.249.254-.28.351a.43.43 0 0 0 0 .263c.031.097.114.182.28.351l1.02 1.042.015 1.458c.003.237.004.355.05.446a.43.43 0 0 0 .187.186c.09.046.209.048.446.05l1.458.015 1.041 1.02c.17.166.254.249.351.28a.43.43 0 0 0 .263 0c.097-.031.182-.114.351-.28l1.042-1.02 1.458-.015c.237-.002.355-.004.446-.05a.43.43 0 0 0 .186-.186c.046-.091.048-.21.05-.446l.015-1.458 1.02-1.042c.166-.169.249-.254.28-.35a.43.43 0 0 0 0-.264c-.031-.097-.114-.182-.28-.35l-1.02-1.042-.015-1.458c-.002-.237-.004-.356-.05-.446a.43.43 0 0 0-.186-.186c-.091-.047-.21-.048-.446-.05l-1.458-.016-1.042-1.02c-.169-.166-.254-.249-.35-.28a.43.43 0 0 0-.264 0m.132 7.23a2.25 2.25 0 1 0 0-4.5 2.25 2.25 0 0 0 0 4.5" clip-rule="evenodd"/></svg>