<svg xmlns="http://www.w3.org/2000/svg" width="24" height="24" fill="none"><path fill="#1A1A1A" d="M18.25 2.5h-16c-.15 0-.25.1-.25.25v3.5c0 .15.1.25.25.25H3.5c.15 0 .25-.1.25-.25v-2H9.5v15.5H8c-.15 0-.25.1-.25.25v1.25c0 .15.1.25.25.25h4.5c.15 0 .25-.1.25-.25V20c0-.15-.1-.25-.25-.25H11V4.25h5.75v2c0 .15.1.25.25.25h1.25c.15 0 .25-.1.25-.25v-3.5c0-.15-.1-.25-.25-.25"/><path fill="#1A1A1A" d="M22.7 12.75h-8c-.15 0-.25.1-.25.25v1.25c0 .15.1.25.25.25h3.1v6.75c0 .15.1.25.25.25h1.25c.15 0 .25-.1.25-.25V14.5h3.1c.15 0 .25-.1.25-.25V13c.05-.15-.05-.25-.2-.25"/></svg>