<svg xmlns="http://www.w3.org/2000/svg" width="24" height="24" fill="none"><path fill="#1A1A1A" d="M10.45 13.25h-8.2c-.15 0-.25.1-.25.25v8.25c0 .15.1.25.25.25h8.25c.15 0 .25-.1.25-.25v-8.2c0-.15-.15-.3-.3-.3m11.25 0h-8.2c-.15 0-.25.1-.25.25v8.25c0 .15.1.25.25.25h8.25c.15 0 .25-.1.25-.25v-8.2c0-.15-.15-.3-.3-.3M10.45 2h-8.2C2.1 2 2 2.1 2 2.25v8.25c0 .15.1.25.25.25h8.25c.15 0 .25-.1.25-.25V2.3c0-.15-.15-.3-.3-.3M21.7 2h-8.2c-.15 0-.25.1-.25.25v8.25c0 .15.1.25.25.25h8.25c.15 0 .25-.1.25-.25V2.3c0-.15-.15-.3-.3-.3"/></svg>