<svg xmlns="http://www.w3.org/2000/svg" width="24" height="24" fill="none"><path fill="#1A1A1A" d="M20.75 2.5h-2c-.15 0-.25.1-.25.25V6h-13V2.75c0-.15-.1-.25-.25-.25h-2c-.15 0-.25.1-.25.25V8.2c0 .15.15.3.3.3h17.45c.15 0 .3-.15.3-.3V2.75c-.05-.15-.15-.25-.3-.25m-17.5 19h2c.15 0 .25-.1.25-.25V18h13v3.25c0 .15.1.25.25.25h2c.15 0 .25-.1.25-.25V15.8c0-.15-.15-.3-.3-.3H3.3c-.15 0-.3.15-.3.3v5.45c0 .15.1.25.25.25m19-8.25H1.75c-.15 0-.25-.1-.25-.25v-2c0-.15.1-.25.25-.25h20.5c.15 0 .25.1.25.25v2c0 .15-.1.25-.25.25"/></svg>