<svg xmlns="http://www.w3.org/2000/svg" width="24" height="24" fill="none"><path fill="#1A1A1A" d="M17.45 2.45 16.2 4.6c-.05.1-.05.25.1.35l1.75 1c.1.05.25.05.35-.1l1.25-2.15c.05-.1.05-.25-.1-.35l-1.75-1c-.1-.05-.25 0-.35.1m-4.2-1.2v2.5c0 .15-.1.25-.25.25h-2c-.15 0-.25-.1-.25-.25v-2.5c0-.15.1-.25.25-.25h2c.15 0 .25.1.25.25m-6.7 1.2L7.8 4.6c.05.1.05.25-.1.35l-1.75 1c-.1.05-.25.05-.35-.1L4.35 3.7c-.05-.1 0-.25.1-.35l1.75-1c.1-.05.25 0 .35.1m15.2 17.05H20.5V14c0-4.65-3.8-8.5-8.5-8.5S3.5 9.3 3.5 14v5.5H2.25c-.15 0-.25.1-.25.25v2c0 .15.1.25.25.25h19.5c.15 0 .25-.1.25-.25v-2c0-.15-.1-.25-.25-.25m-8.5-.25c0 .15-.1.25-.25.25h-2c-.15 0-.25-.1-.25-.25v-5c0-.15.1-.25.25-.25h2c.15 0 .25.1.25.25z"/></svg>