<svg xmlns="http://www.w3.org/2000/svg" width="24" height="24" fill="none"><path fill="#0C0C0C" fill-rule="evenodd" d="M12 .9c2.965 0 5.752 1.154 7.848 3.25A11.03 11.03 0 0 1 23.1 12c0 2.965-1.155 5.752-3.252 7.848A11.03 11.03 0 0 1 12 23.1a11.03 11.03 0 0 1-7.85-3.252A11.03 11.03 0 0 1 .9 12c0-2.965 1.154-5.752 3.25-7.85A11.03 11.03 0 0 1 12 .9m-5.97 9.514a.2.2 0 0 0 0 .283l5.828 5.826a.2.2 0 0 0 .283 0l5.829-5.826a.2.2 0 0 0 0-.283l-1.273-1.273a.2.2 0 0 0-.283 0L12 13.554 7.586 9.142a.2.2 0 0 0-.283 0z" clip-rule="evenodd"/></svg>